<svg width="50" height="49" viewBox="0 0 50 49" fill="none" xmlns="http://www.w3.org/2000/svg">
<rect x="0.34668" width="49" height="49" rx="24.5" fill="url(#paint0_linear_4021_163)"/>
<g clip-path="url(#clip0_4021_163)">
<path d="M14.2627 29.1014C14.3111 29.1014 14.352 29.0617 14.359 29.0057L14.6218 26.9222L14.3598 24.7914C14.3519 24.7354 14.3111 24.6953 14.2627 24.6953C14.2131 24.6953 14.1709 24.7362 14.1643 24.7914L13.9346 26.9222L14.1643 29.005C14.1709 29.0609 14.2131 29.1014 14.2627 29.1014Z" fill="white"/>
<path d="M13.3952 28.3097C13.4427 28.3097 13.4812 28.2727 13.4882 28.2175L13.6919 26.9228L13.4882 25.6039C13.4812 25.5504 13.4427 25.5117 13.3952 25.5117C13.3456 25.5117 13.3072 25.5504 13.3002 25.6047L13.1299 26.9229L13.3002 28.2172C13.3072 28.2719 13.3456 28.3097 13.3952 28.3097Z" fill="white"/>
<path d="M15.2982 24.3945C15.2919 24.3268 15.2423 24.2773 15.1808 24.2773C15.1197 24.2773 15.07 24.3268 15.0643 24.3945L14.8447 26.922L15.0643 29.3571C15.07 29.4245 15.1197 29.4733 15.1808 29.4733C15.2423 29.4733 15.2919 29.4245 15.2982 29.3571L15.5466 26.922L15.2982 24.3945Z" fill="white"/>
<path d="M16.1112 29.5708C16.1833 29.5708 16.2415 29.5115 16.2486 29.434L16.4833 26.9221L16.2486 24.3241C16.2415 24.2461 16.1833 24.1875 16.1112 24.1875C16.0382 24.1875 15.9791 24.2462 15.9741 24.3245L15.7666 26.9221L15.9741 29.434C15.9791 29.5116 16.0382 29.5708 16.1112 29.5708Z" fill="white"/>
<path d="M17.047 29.612C17.1309 29.612 17.1983 29.5448 17.2052 29.4549L17.2044 29.4555L17.4255 26.9225L17.2044 24.5121C17.1982 24.4237 17.1309 24.3555 17.047 24.3555C16.9618 24.3555 16.8949 24.4237 16.8898 24.5128L16.6943 26.9226L16.8898 29.455C16.8949 29.5448 16.9619 29.612 17.047 29.612Z" fill="white"/>
<path d="M18.3743 26.922L18.1669 23.0028C18.1611 22.9034 18.0837 22.8242 17.9887 22.8242C17.8945 22.8242 17.8173 22.9033 17.8115 23.0028L17.6279 26.922L17.8115 29.4544C17.8173 29.5542 17.8945 29.6323 17.9887 29.6323C18.0838 29.6323 18.1611 29.5542 18.1669 29.4544V29.4551L18.3743 26.922Z" fill="white"/>
<path d="M18.9408 29.6379C19.0454 29.6379 19.1322 29.5511 19.1371 29.4403V29.4419L19.331 26.924L19.1371 22.1077C19.1322 21.9969 19.0454 21.9102 18.9408 21.9102C18.8338 21.9102 18.7478 21.9969 18.742 22.1077L18.5713 26.924L18.7428 29.4411C18.7478 29.5511 18.8338 29.6379 18.9408 29.6379Z" fill="white"/>
<path d="M19.897 21.4883C19.7792 21.4883 19.6842 21.585 19.6793 21.7069L19.5205 26.9252L19.6793 29.4158C19.6842 29.5371 19.7792 29.6332 19.897 29.6332C20.0145 29.6332 20.1103 29.5379 20.1144 29.4154V29.4167L20.2946 26.9252L20.1144 21.7069C20.1103 21.5842 20.0144 21.4883 19.897 21.4883Z" fill="white"/>
<path d="M20.864 29.6382C20.9933 29.6382 21.0964 29.5338 21.1012 29.3995V29.4009L21.2678 26.9252L21.1012 21.5317C21.0963 21.3978 20.9933 21.293 20.864 21.293C20.7338 21.293 20.6292 21.3978 20.6272 21.5317L20.4775 26.9252L20.6272 29.4009C20.6292 29.5338 20.7338 29.6382 20.864 29.6382Z" fill="white"/>
<path d="M21.8391 29.6352C21.9786 29.6352 22.0919 29.5209 22.0961 29.376V29.3783L22.2495 26.9251L22.0961 21.6688C22.0919 21.524 21.9786 21.4102 21.8391 21.4102C21.6984 21.4102 21.5852 21.5239 21.581 21.6688L21.4463 26.9251L21.5819 29.3771C21.5852 29.5209 21.6984 29.6352 21.8391 29.6352Z" fill="white"/>
<path d="M23.2354 26.9257L23.0966 21.861C23.0932 21.7048 22.9709 21.582 22.8192 21.582C22.6671 21.582 22.5447 21.7048 22.5415 21.862L22.417 26.9257L22.5415 29.3628C22.5447 29.5178 22.667 29.6406 22.8192 29.6406C22.9708 29.6406 23.0932 29.5178 23.0966 29.3605V29.3628L23.2354 26.9257Z" fill="white"/>
<path d="M23.807 29.644C23.9683 29.644 24.1018 29.5098 24.1043 29.3449V29.3463L24.2303 26.9259L24.1043 20.899C24.1018 20.7335 23.9683 20.5996 23.807 20.5996C23.6459 20.5996 23.5128 20.7341 23.5095 20.8999L23.3975 26.9235L23.5095 29.3463C23.5128 29.5098 23.6459 29.644 23.807 29.644Z" fill="white"/>
<path d="M24.7932 20.0332C24.6191 20.0332 24.4778 20.1776 24.4749 20.3537L24.3447 26.9272L24.4757 29.3118C24.4778 29.4856 24.6191 29.6296 24.7932 29.6296C24.9647 29.6296 25.1085 29.4855 25.1093 29.3089V29.3118L25.2515 26.9272L25.1093 20.3537C25.1085 20.177 24.9647 20.0332 24.7932 20.0332Z" fill="white"/>
<path d="M25.6916 29.6469C25.6987 29.6475 33.63 29.6512 33.681 29.6512C35.2733 29.6512 36.5637 28.345 36.5637 26.733C36.5637 25.122 35.2733 23.8155 33.681 23.8155C33.2858 23.8155 32.9092 23.8963 32.5658 24.0426C32.3376 21.4123 30.1587 19.3496 27.5007 19.3496C26.8509 19.3496 26.2173 19.4794 25.6577 19.6987C25.4399 19.7839 25.3816 19.8717 25.3799 20.0418V29.3016C25.3824 29.4805 25.5188 29.6291 25.6916 29.6469Z" fill="white"/>
</g>
<defs>
<linearGradient id="paint0_linear_4021_163" x1="6.98687" y1="-8.92187e-06" x2="44.8853" y2="4.75943" gradientUnits="userSpaceOnUse">
<stop stop-color="#D10ED1"/>
<stop offset="1" stop-color="#10A3DA"/>
</linearGradient>
<clipPath id="clip0_4021_163">
<rect width="23.4348" height="23.4348" fill="white" transform="translate(13.1299 12.7832)"/>
</clipPath>
</defs>
</svg>
