<svg width="50" height="49" viewBox="0 0 50 49" fill="none" xmlns="http://www.w3.org/2000/svg">
<g id="ic:baseline-discord">
<rect x="0.955078" width="49" height="49" rx="24.5" fill="url(#paint0_linear_4021_161)"/>
<path id="Vector" d="M35.0414 16.5056C33.2873 15.7628 31.3882 15.2237 29.4098 14.9122C29.3925 14.9117 29.3752 14.9146 29.3593 14.9208C29.3433 14.927 29.3291 14.9363 29.3175 14.9481C29.0801 15.3435 28.8032 15.8586 28.6185 16.254C26.5202 15.9665 24.3862 15.9665 22.2879 16.254C22.1033 15.8466 21.8263 15.3435 21.5757 14.9481C21.5625 14.9241 21.523 14.9122 21.4834 14.9122C19.5051 15.2237 17.6191 15.7628 15.8518 16.5056C15.8386 16.5056 15.8254 16.5176 15.8122 16.5295C12.2249 21.4056 11.2357 26.1499 11.7237 30.8463C11.7237 30.8703 11.7369 30.8942 11.7633 30.9062C14.1372 32.4876 16.4189 33.4461 18.6742 34.0811C18.7137 34.093 18.7533 34.0811 18.7665 34.0571C19.2941 33.3982 19.7688 32.7033 20.1777 31.9725C20.2041 31.9246 20.1777 31.8766 20.1249 31.8647C19.3732 31.6011 18.661 31.2896 17.962 30.9302C17.9092 30.9062 17.9092 30.8343 17.9488 30.7984C18.0939 30.7025 18.239 30.5947 18.384 30.4989C18.4104 30.4749 18.45 30.4749 18.4763 30.4869C23.0133 32.3678 27.9063 32.3678 32.3905 30.4869C32.4169 30.4749 32.4564 30.4749 32.4828 30.4989C32.6279 30.6067 32.773 30.7025 32.918 30.8104C32.9708 30.8463 32.9708 30.9182 32.9049 30.9422C32.219 31.3135 31.4937 31.6131 30.7419 31.8766C30.6891 31.8886 30.676 31.9485 30.6891 31.9845C31.1112 32.7153 31.586 33.4101 32.1003 34.0691C32.1399 34.0811 32.1795 34.093 32.219 34.0811C34.4875 33.4461 36.7692 32.4876 39.1431 30.9062C39.1695 30.8942 39.1827 30.8703 39.1827 30.8463C39.763 25.4191 38.2199 20.7108 35.0942 16.5295C35.081 16.5176 35.0678 16.5056 35.0414 16.5056ZM20.8635 27.983C19.5051 27.983 18.3708 26.8448 18.3708 25.4431C18.3708 24.0414 19.4787 22.9032 20.8635 22.9032C22.2615 22.9032 23.3694 24.0533 23.3562 25.4431C23.3562 26.8448 22.2483 27.983 20.8635 27.983ZM30.0561 27.983C28.6976 27.983 27.5634 26.8448 27.5634 25.4431C27.5634 24.0414 28.6713 22.9032 30.0561 22.9032C31.4541 22.9032 32.562 24.0533 32.5488 25.4431C32.5488 26.8448 31.4541 27.983 30.0561 27.983Z" fill="white"/>
</g>
<defs>
<linearGradient id="paint0_linear_4021_161" x1="7.59527" y1="-8.92187e-06" x2="45.4937" y2="4.75943" gradientUnits="userSpaceOnUse">
<stop stop-color="#D10ED1"/>
<stop offset="1" stop-color="#10A3DA"/>
</linearGradient>
</defs>
</svg>
