<svg width="50" height="49" viewBox="0 0 50 49" fill="none" xmlns="http://www.w3.org/2000/svg">
<g id="mdi:youtube">
<rect x="0.172852" width="49" height="49" rx="24.5" fill="url(#paint0_linear_4021_157)"/>
<path id="Vector" d="M22.328 28.6097L28.4093 24.501L22.328 20.3923V28.6097ZM35.8733 17.886C36.0256 18.5297 36.1311 19.3925 36.2014 20.4882C36.2834 21.5838 36.3186 22.5288 36.3186 23.3506L36.3889 24.501C36.3889 27.5004 36.2014 29.7054 35.8733 31.116C35.5804 32.3486 34.9008 33.143 33.8462 33.4854C33.2955 33.6634 32.2878 33.7867 30.7411 33.8688C29.2178 33.9647 27.8235 34.0058 26.5346 34.0058L24.6715 34.088C19.7619 34.088 16.7037 33.8688 15.4968 33.4854C14.4422 33.143 13.7626 32.3486 13.4697 31.116C13.3173 30.4723 13.2119 29.6095 13.1416 28.5138C13.0596 27.4182 13.0244 26.4732 13.0244 25.6515L12.9541 24.501C12.9541 21.5017 13.1416 19.2967 13.4697 17.886C13.7626 16.6534 14.4422 15.8591 15.4968 15.5167C16.0475 15.3386 17.0552 15.2154 18.6019 15.1332C20.1251 15.0373 21.5195 14.9962 22.8084 14.9962L24.6715 14.9141C29.5811 14.9141 32.6393 15.1332 33.8462 15.5167C34.9008 15.8591 35.5804 16.6534 35.8733 17.886Z" fill="white"/>
</g>
<defs>
<linearGradient id="paint0_linear_4021_157" x1="6.81304" y1="-8.92187e-06" x2="44.7114" y2="4.75943" gradientUnits="userSpaceOnUse">
<stop stop-color="#D10ED1"/>
<stop offset="1" stop-color="#10A3DA"/>
</linearGradient>
</defs>
</svg>
