<svg width="22" height="22" viewBox="0 0 22 22" fill="none" xmlns="http://www.w3.org/2000/svg">
<path d="M19.25 17.4928V14.5906C19.25 12.969 19.25 12.1587 18.755 11.957C18.26 11.7553 17.677 12.3283 16.5119 13.475C15.9051 14.0718 15.5522 14.2001 14.7052 14.2001C13.9535 14.2001 13.5786 14.2001 13.3091 14.3779C12.7554 14.7409 12.8333 15.4578 12.8333 16.0417C12.8333 16.6256 12.7554 17.3424 13.3091 17.7054C13.5786 17.8833 13.9544 17.8833 14.7052 17.8833C15.5522 17.8833 15.9051 18.0116 16.511 18.6083C17.677 19.7551 18.26 20.3289 18.755 20.1263C19.25 19.9247 19.25 19.1143 19.25 17.4928Z" stroke="white" stroke-width="1.5" stroke-linecap="round" stroke-linejoin="round"/>
<path d="M11 20.1666H9.83308C6.84475 20.1666 5.34875 20.1666 4.31108 19.4351C4.01578 19.2281 3.75182 18.9795 3.52733 18.6972C2.75 17.7201 2.75 16.3139 2.75 13.4997V11.1668C2.75 8.45073 2.75 7.09223 3.17992 6.00781C3.87108 4.2634 5.33225 2.8884 7.18575 2.23756C8.33708 1.83331 9.779 1.83331 12.6665 1.83331C14.3147 1.83331 15.1397 1.83331 15.7978 2.06431C16.8566 2.43648 17.6917 3.22206 18.0868 4.21848C18.3333 4.83815 18.3333 5.61456 18.3333 7.16648V9.16665" stroke="white" stroke-width="1.5" stroke-linecap="round" stroke-linejoin="round"/>
<path d="M2.75 11C2.75 10.1897 3.07189 9.41256 3.64486 8.83959C4.21783 8.26662 4.99495 7.94473 5.80525 7.94473C6.41575 7.94473 7.13533 8.05106 7.72842 7.89248C7.98757 7.82274 8.22383 7.68609 8.41351 7.49625C8.6032 7.3064 8.73964 7.07002 8.80917 6.81081C8.96775 6.21773 8.86142 5.49815 8.86142 4.88765C8.86166 4.0775 9.18366 3.30062 9.7566 2.72785C10.3295 2.15508 11.1065 1.83331 11.9167 1.83331" stroke="white" stroke-width="1.5" stroke-linecap="round" stroke-linejoin="round"/>
</svg>
