<svg width="22" height="22" viewBox="0 0 22 22" fill="none" xmlns="http://www.w3.org/2000/svg">
<path d="M10.9999 18.0079C9.7615 17.1362 8.32784 16.5807 6.8245 16.3937C5.75827 16.1771 4.672 16.0748 3.58409 16.0884C3.44488 16.0896 3.30681 16.0633 3.17786 16.0108C3.0489 15.9584 2.93161 15.8809 2.83274 15.7829C2.73388 15.6849 2.65541 15.5683 2.60186 15.4398C2.54831 15.3113 2.52075 15.1735 2.52075 15.0343L2.54 5.04902C2.53942 4.7811 2.64087 4.523 2.82373 4.3272C3.0066 4.13139 3.25717 4.01255 3.5245 3.99485C4.63197 3.97275 5.73854 4.07172 6.8245 4.29002C8.32622 4.48369 9.75879 5.03784 10.9999 5.90518M10.9999 18.0079V5.90518M10.9999 18.0079C12.2383 17.1362 13.672 16.5807 15.1753 16.3937C16.2416 16.1771 17.3278 16.0748 18.4158 16.0884C18.555 16.0896 18.693 16.0633 18.822 16.0108C18.9509 15.9584 19.0682 15.8809 19.1671 15.7829C19.266 15.6849 19.3444 15.5683 19.398 15.4398C19.4515 15.3113 19.4791 15.1735 19.4791 15.0343L19.4589 5.04902C19.4595 4.78124 19.3582 4.52328 19.1755 4.32749C18.9928 4.13171 18.7425 4.01278 18.4753 3.99485C17.3679 3.97275 16.2613 4.07172 15.1753 4.29002C13.6736 4.48369 12.241 5.03784 10.9999 5.90518" stroke="white" stroke-width="1.5" stroke-linecap="round" stroke-linejoin="round"/>
</svg>
