<svg width="22" height="22" viewBox="0 0 22 22" fill="none" xmlns="http://www.w3.org/2000/svg">
<path d="M1.83325 4.58333C1.83325 4.0971 2.02641 3.63079 2.37022 3.28697C2.71404 2.94315 3.18036 2.75 3.66659 2.75H9.16659V19.25H3.66659C3.18036 19.25 2.71404 19.0568 2.37022 18.713C2.02641 18.3692 1.83325 17.9029 1.83325 17.4167V4.58333ZM12.8333 2.75H18.3333C18.8195 2.75 19.2858 2.94315 19.6296 3.28697C19.9734 3.63079 20.1666 4.0971 20.1666 4.58333V9.16667H12.8333V2.75ZM12.8333 12.8333H20.1666V17.4167C20.1666 17.9029 19.9734 18.3692 19.6296 18.713C19.2858 19.0568 18.8195 19.25 18.3333 19.25H12.8333V12.8333Z" stroke="white" stroke-width="2" stroke-linecap="round" stroke-linejoin="round"/>
</svg>
