<svg width="22" height="22" viewBox="0 0 22 22" fill="none" xmlns="http://www.w3.org/2000/svg">
<path d="M7.81009 12.6922C6.85675 12.6922 6.07942 11.8259 6.07942 10.7662C6.07942 9.70657 6.8375 8.83941 7.811 8.83941C8.7735 8.83941 9.56184 9.70566 9.54259 10.7662C9.54259 11.8259 8.7735 12.6922 7.81009 12.6922ZM14.2029 12.6912C13.2496 12.6912 12.4704 11.825 12.4704 10.7653C12.4704 9.70566 13.2303 8.83849 14.2029 8.83849C15.1654 8.83849 15.9538 9.70474 15.9354 10.7653C15.9354 11.825 15.1755 12.6912 14.2029 12.6912ZM9.28134 3.96091L8.999 3.44482L8.41784 3.54199C7.10087 3.7621 5.81909 4.15668 4.60634 4.71532L4.39734 4.81157L4.26717 5.00407C1.87192 8.53599 1.21467 12.0147 1.54009 15.4312L1.57584 15.8042L1.87834 16.0242C3.28735 17.0583 4.86118 17.8464 6.53317 18.3553L7.25734 18.5772L8.27759 16.0875C10.0284 16.5202 11.9718 16.5202 13.7217 16.0875L14.7364 18.5781L15.4606 18.3562C17.134 17.8486 18.7087 17.0597 20.1173 16.0233L20.417 15.8052L20.4537 15.4367C20.8533 11.4767 19.8148 8.02724 17.7422 5.00132L17.612 4.81066L17.403 4.71532C16.1906 4.159 14.9104 3.76451 13.5952 3.54199L13.0287 3.44757L12.7408 3.94441C12.6602 4.08191 12.5786 4.23774 12.4998 4.39632C11.5053 4.29439 10.5031 4.29439 9.50867 4.39632C9.43075 4.24049 9.35284 4.09016 9.28134 3.96091ZM6.1555 15.2258C6.33609 15.3303 6.52675 15.433 6.71467 15.5265L6.30309 16.5312C5.18979 16.1255 4.1336 15.5777 3.16075 14.9013C2.9545 12.0248 3.53934 9.12174 5.51109 6.12882C6.34331 5.76264 7.21068 5.48222 8.09975 5.29191C8.15475 5.40649 8.20609 5.51924 8.24825 5.61824L8.4985 6.20766L9.13284 6.11507C10.3759 5.93286 11.6389 5.93286 12.882 6.11507L13.5145 6.20674L13.7638 5.61824C13.8069 5.51557 13.8573 5.40374 13.9105 5.29191C14.8061 5.48441 15.6733 5.76857 16.5028 6.13066C18.2216 8.71566 19.0888 11.5995 18.8367 14.9004C17.8633 15.5773 16.8065 16.1254 15.6925 16.5312L15.2846 15.5274C15.4734 15.4339 15.6641 15.3312 15.8465 15.2258C16.2957 14.9673 16.7788 14.6447 17.0868 14.3367L15.9134 13.1633C15.764 13.3137 15.434 13.5483 15.0178 13.7885C14.6108 14.0232 14.2066 14.2129 13.9481 14.2982C12.112 14.9059 9.88909 14.9059 8.05209 14.2982C7.7945 14.2129 7.39025 14.0232 6.98325 13.7885C6.56709 13.5492 6.23709 13.3137 6.08675 13.1633L4.91342 14.3367C5.22234 14.6447 5.70634 14.9673 6.1555 15.2258Z" fill="white"/>
</svg>
