<svg width="22" height="22" viewBox="0 0 22 22" fill="none" xmlns="http://www.w3.org/2000/svg">
<g clip-path="url(#clip0_2923_6183)">
<path fill-rule="evenodd" clip-rule="evenodd" d="M15.5834 3.66669C16.2828 3.66669 16.8612 4.06452 17.2847 4.48252C17.7256 4.9161 18.1299 5.4991 18.4892 6.14169C19.2106 7.43052 19.8385 9.11444 20.2538 10.7782C20.6663 12.4291 20.8945 14.1534 20.7488 15.5091C20.6021 16.8704 19.9009 18.3334 18.3334 18.3334C16.9804 18.3334 15.9024 17.6367 15.0205 16.9299L14.6988 16.665L14.2478 16.2846L13.8408 15.9473C12.9067 15.191 12.0771 14.6667 11 14.6667C9.92295 14.6667 9.09337 15.191 8.15928 15.9473L7.75228 16.2846L7.30128 16.665L6.98045 16.9299C6.09678 17.6367 5.01878 18.3334 3.6667 18.3334C2.09828 18.3334 1.39703 16.8704 1.25128 15.5091C1.10645 14.1524 1.33378 12.4291 1.74628 10.7782C2.16153 9.11444 2.78945 7.43052 3.51087 6.14077C3.8702 5.4991 4.27445 4.9161 4.71537 4.4816C5.13887 4.06452 5.71728 3.66669 6.4167 3.66669C6.88878 3.66669 7.34987 3.77944 7.80362 3.91419L8.34628 4.0801C8.43673 4.10822 8.52687 4.1348 8.6167 4.15985C9.40962 4.38719 10.2209 4.58335 11 4.58335C11.7792 4.58335 12.5904 4.38719 13.3834 4.15985L14.1946 3.9151C14.6511 3.78035 15.1159 3.66669 15.5834 3.66669ZM15.5834 5.50002C15.2323 5.50002 14.8656 5.60635 14.5099 5.72277L14.0901 5.86119L13.8875 5.92352C13.0763 6.15452 12.0542 6.41669 11 6.41669C9.94587 6.41669 8.92378 6.15452 8.11253 5.92352L7.91087 5.86119L7.49012 5.72277C7.13445 5.60544 6.76778 5.50002 6.4167 5.50002C6.03353 5.57152 5.68978 6.03627 5.43037 6.4671L5.28553 6.71919L5.11137 7.03635C4.4862 8.15285 3.91053 9.67635 3.52553 11.2228C3.16345 12.6674 2.98745 14.0516 3.05437 15.0819L3.0782 15.3505L3.09653 15.5119L3.12403 15.7025C3.18728 16.0701 3.32387 16.5 3.6667 16.5C4.41103 16.5 5.03253 16.1297 5.80528 15.5155L6.1747 15.2149L6.87137 14.6319L7.1867 14.3752C8.16203 13.6024 9.38212 12.8334 11 12.8334C12.6179 12.8334 13.838 13.6034 14.8134 14.3752L15.1296 14.6319L15.8263 15.2149L16.1948 15.5155C16.9675 16.1297 17.5881 16.5 18.3334 16.5C18.645 16.5 18.7862 16.1453 18.8568 15.8043L18.8916 15.6044L18.9255 15.3139C19.0383 14.2634 18.8641 12.7793 18.4755 11.2228C18.1216 9.8056 17.6083 8.40677 17.0436 7.32327L16.7145 6.71827L16.5697 6.46802C16.3103 6.03627 15.9665 5.57152 15.5834 5.50002ZM7.7917 7.33335C8.39949 7.33335 8.98238 7.5748 9.41215 8.00457C9.84192 8.43434 10.0834 9.01723 10.0834 9.62502C10.0834 10.2328 9.84192 10.8157 9.41215 11.2455C8.98238 11.6752 8.39949 11.9167 7.7917 11.9167C7.18391 11.9167 6.60102 11.6752 6.17125 11.2455C5.74148 10.8157 5.50003 10.2328 5.50003 9.62502C5.50003 9.01723 5.74148 8.43434 6.17125 8.00457C6.60102 7.5748 7.18391 7.33335 7.7917 7.33335ZM14.2084 7.33335C14.4329 7.33338 14.6496 7.41581 14.8174 7.56501C14.9852 7.71421 15.0923 7.91979 15.1186 8.14277L15.125 8.25002V8.70835H15.5834C15.817 8.70861 16.0417 8.79808 16.2116 8.95846C16.3815 9.11885 16.4837 9.33806 16.4974 9.5713C16.5111 9.80454 16.4352 10.0342 16.2853 10.2134C16.1353 10.3925 15.9226 10.5077 15.6906 10.5353L15.5834 10.5417H15.125V11C15.1248 11.2337 15.0353 11.4584 14.8749 11.6283C14.7145 11.7982 14.4953 11.9004 14.2621 11.9141C14.0288 11.9278 13.7992 11.8519 13.62 11.7019C13.4409 11.552 13.3257 11.3393 13.2981 11.1073L13.2917 11V10.5417H12.8334C12.5997 10.5414 12.375 10.452 12.2051 10.2916C12.0352 10.1312 11.933 9.91198 11.9193 9.67874C11.9056 9.4455 11.9815 9.21584 12.1314 9.03667C12.2814 8.85751 12.4941 8.74237 12.7261 8.71477L12.8334 8.70835H13.2917V8.25002C13.2917 8.00691 13.3883 7.77375 13.5602 7.60184C13.7321 7.42993 13.9653 7.33335 14.2084 7.33335ZM7.7917 9.16669C7.67014 9.16669 7.55356 9.21498 7.46761 9.30093C7.38165 9.38688 7.33337 9.50346 7.33337 9.62502C7.33337 9.74658 7.38165 9.86316 7.46761 9.94911C7.55356 10.0351 7.67014 10.0834 7.7917 10.0834C7.91326 10.0834 8.02984 10.0351 8.11579 9.94911C8.20174 9.86316 8.25003 9.74658 8.25003 9.62502C8.25003 9.50346 8.20174 9.38688 8.11579 9.30093C8.02984 9.21498 7.91326 9.16669 7.7917 9.16669Z" fill="white"/>
</g>
<defs>
<clipPath id="clip0_2923_6183">
<rect width="22" height="22" fill="white"/>
</clipPath>
</defs>
</svg>
