<svg width="60" height="60" viewBox="0 0 60 60" fill="none" xmlns="http://www.w3.org/2000/svg">
<rect opacity="0.2" width="60" height="60" rx="15" fill="#00BECC"/>
<g clip-path="url(#clip0_2930_1273)">
<path fill-rule="evenodd" clip-rule="evenodd" d="M39.1667 15.3333C40.5656 15.3333 41.7224 16.129 42.5694 16.965C43.4512 17.8321 44.2597 18.9981 44.9784 20.2833C46.4212 22.861 47.6771 26.2288 48.5076 29.5563C49.3326 32.8581 49.7891 36.3066 49.4976 39.0181C49.2042 41.7406 47.8017 44.6666 44.6667 44.6666C41.9607 44.6666 39.8047 43.2733 38.0411 41.8598L37.3976 41.33L36.4956 40.5691L35.6816 39.8945C33.8134 38.382 32.1542 37.3333 30.0001 37.3333C27.8459 37.3333 26.1867 38.382 24.3186 39.8945L23.5046 40.5691L22.6026 41.33L21.9609 41.8598C20.1936 43.2733 18.0376 44.6666 15.3334 44.6666C12.1966 44.6666 10.7941 41.7406 10.5026 39.0181C10.2129 36.3048 10.6676 32.8581 11.4926 29.5563C12.3231 26.2288 13.5789 22.861 15.0217 20.2815C15.7404 18.9981 16.5489 17.8321 17.4307 16.9631C18.2777 16.129 19.4346 15.3333 20.8334 15.3333C21.7776 15.3333 22.6997 15.5588 23.6072 15.8283L24.6926 16.1601C24.8735 16.2164 25.0537 16.2695 25.2334 16.3196C26.8192 16.7743 28.4417 17.1666 30.0001 17.1666C31.5584 17.1666 33.1809 16.7743 34.7667 16.3196L36.3892 15.8301C37.3022 15.5606 38.2317 15.3333 39.1667 15.3333ZM39.1667 19C38.4646 19 37.7312 19.2126 37.0199 19.4455L36.1802 19.7223L35.7751 19.847C34.1526 20.309 32.1084 20.8333 30.0001 20.8333C27.8917 20.8333 25.8476 20.309 24.2251 19.847L23.8217 19.7223L22.9802 19.4455C22.2689 19.2108 21.5356 19 20.8334 19C20.0671 19.143 19.3796 20.0725 18.8607 20.9341L18.5711 21.4383L18.2227 22.0726C16.9724 24.3056 15.8211 27.3526 15.0511 30.4455C14.3269 33.3348 13.9749 36.1031 14.1087 38.1638L14.1564 38.701L14.1931 39.0236L14.2481 39.405C14.3746 40.1401 14.6477 41 15.3334 41C16.8221 41 18.0651 40.2593 19.6106 39.031L20.3494 38.4296L21.7427 37.2636L22.3734 36.7503C24.3241 35.2048 26.7642 33.6666 30.0001 33.6666C33.2359 33.6666 35.6761 35.2066 37.6267 36.7503L38.2592 37.2636L39.6526 38.4296L40.3896 39.031C41.9351 40.2593 43.1762 41 44.6667 41C45.2901 41 45.5724 40.2905 45.7136 39.6085L45.7832 39.2088L45.8511 38.6276C46.0766 36.5266 45.7282 33.5585 44.9509 30.4455C44.2432 27.6111 43.2166 24.8135 42.0872 22.6465L41.4291 21.4365L41.1394 20.936C40.6206 20.0725 39.9331 19.143 39.1667 19ZM23.5834 22.6666C24.799 22.6666 25.9648 23.1495 26.8243 24.0091C27.6838 24.8686 28.1667 26.0344 28.1667 27.25C28.1667 28.4656 27.6838 29.6313 26.8243 30.4909C25.9648 31.3504 24.799 31.8333 23.5834 31.8333C22.3678 31.8333 21.202 31.3504 20.3425 30.4909C19.483 29.6313 19.0001 28.4656 19.0001 27.25C19.0001 26.0344 19.483 24.8686 20.3425 24.0091C21.202 23.1495 22.3678 22.6666 23.5834 22.6666ZM36.4167 22.6666C36.8658 22.6667 37.2992 22.8316 37.6347 23.13C37.9703 23.4283 38.1847 23.8395 38.2372 24.2855L38.2501 24.5V25.4166H39.1667C39.634 25.4172 40.0835 25.5961 40.4232 25.9169C40.763 26.2376 40.9675 26.6761 40.9949 27.1425C41.0223 27.609 40.8705 28.0683 40.5706 28.4267C40.2707 28.785 39.8452 29.0153 39.3812 29.0705L39.1667 29.0833H38.2501V30C38.2495 30.4673 38.0706 30.9167 37.7498 31.2565C37.4291 31.5963 36.9907 31.8007 36.5242 31.8281C36.0577 31.8555 35.5984 31.7037 35.24 31.4038C34.8817 31.1039 34.6514 30.6785 34.5962 30.2145L34.5834 30V29.0833H33.6667C33.1995 29.0828 32.75 28.9039 32.4102 28.5831C32.0704 28.2623 31.866 27.8239 31.8386 27.3574C31.8112 26.8909 31.963 26.4316 32.2629 26.0733C32.5628 25.715 32.9882 25.4847 33.4522 25.4295L33.6667 25.4166H34.5834V24.5C34.5834 24.0137 34.7766 23.5474 35.1204 23.2036C35.4642 22.8598 35.9305 22.6666 36.4167 22.6666ZM23.5834 26.3333C23.3403 26.3333 23.1071 26.4299 22.9352 26.6018C22.7633 26.7737 22.6667 27.0069 22.6667 27.25C22.6667 27.4931 22.7633 27.7263 22.9352 27.8982C23.1071 28.0701 23.3403 28.1666 23.5834 28.1666C23.8265 28.1666 24.0597 28.0701 24.2316 27.8982C24.4035 27.7263 24.5001 27.4931 24.5001 27.25C24.5001 27.0069 24.4035 26.7737 24.2316 26.6018C24.0597 26.4299 23.8265 26.3333 23.5834 26.3333Z" fill="#00BECC"/>
</g>
<defs>
<clipPath id="clip0_2930_1273">
<rect width="44" height="44" fill="white" transform="translate(8 8)"/>
</clipPath>
</defs>
</svg>
