<svg width="22" height="22" viewBox="0 0 22 22" fill="none" xmlns="http://www.w3.org/2000/svg">
<g clip-path="url(#clip0_2930_1294)">
<path d="M11.264 0C14.7235 0 17.9267 1.5345 20.0508 4.1184C20.1113 4.19164 20.1565 4.27631 20.1836 4.36737C20.2107 4.45842 20.2192 4.554 20.2087 4.64842C20.1981 4.74284 20.1687 4.83416 20.1221 4.91697C20.0755 4.99977 20.0127 5.07235 19.9375 5.1304C19.7844 5.25041 19.5905 5.30605 19.3971 5.28552C19.2036 5.26498 19.0258 5.16988 18.9013 5.0204C17.9726 3.89529 16.8056 2.99039 15.4847 2.37102C14.1638 1.75165 12.7218 1.43325 11.2629 1.4388C5.8564 1.4388 1.4729 5.72 1.4729 11C1.4729 16.28 5.8564 20.5612 11.2629 20.5612C12.7428 20.567 14.2051 20.2395 15.5412 19.6029C16.8772 18.9663 18.0527 18.0369 18.9805 16.8839C19.1029 16.7329 19.2793 16.6354 19.4723 16.6122C19.6653 16.589 19.8598 16.6419 20.0145 16.7596C20.0904 16.8167 20.154 16.8884 20.2016 16.9705C20.2492 17.0527 20.2798 17.1435 20.2916 17.2377C20.3034 17.3319 20.2962 17.4275 20.2703 17.5188C20.2444 17.6102 20.2005 17.6954 20.141 17.7694C18.0202 20.4204 14.7741 22 11.264 22C5.0413 22 0 17.0753 0 11C0 4.9247 5.0424 0 11.264 0ZM18.8078 7.876L21.7844 10.8537C22.0726 11.1408 22.0781 11.6017 21.7976 11.8833L18.8892 14.7906C18.821 14.8577 18.7402 14.9107 18.6515 14.9465C18.5627 14.9823 18.4678 15.0002 18.3721 14.9992C18.2764 14.9982 18.1819 14.9783 18.0939 14.9406C18.006 14.9029 17.9263 14.8482 17.8596 14.7796C17.7908 14.7129 17.7359 14.6333 17.698 14.5452C17.6601 14.4572 17.64 14.3626 17.6389 14.2668C17.6378 14.171 17.6556 14.0759 17.6914 13.987C17.7272 13.8981 17.7803 13.8172 17.8475 13.7489L19.5492 12.0472H8.2082C8.11249 12.0487 8.01744 12.0312 7.92852 11.9957C7.83959 11.9603 7.75855 11.9077 7.69005 11.8408C7.62156 11.7739 7.56696 11.6942 7.5294 11.6062C7.49184 11.5181 7.47206 11.4235 7.4712 11.3278C7.4712 10.9296 7.8012 10.6073 8.2082 10.6073H19.5041L17.7903 8.8935C17.7217 8.82683 17.6669 8.74725 17.6291 8.65934C17.5913 8.57142 17.5713 8.4769 17.5701 8.38122C17.569 8.28553 17.5868 8.19057 17.6225 8.10179C17.6582 8.01301 17.7111 7.93216 17.7782 7.8639C17.8465 7.79684 17.9273 7.74393 18.0161 7.70823C18.1049 7.67252 18.1998 7.65472 18.2955 7.65584C18.3912 7.65697 18.4857 7.677 18.5736 7.71478C18.6616 7.75256 18.7411 7.80735 18.8078 7.876Z" fill="white"/>
</g>
<defs>
<clipPath id="clip0_2930_1294">
<rect width="22" height="22" fill="white"/>
</clipPath>
</defs>
</svg>
