<svg width="60" height="60" viewBox="0 0 60 60" fill="none" xmlns="http://www.w3.org/2000/svg">
<rect opacity="0.2" width="60" height="60" rx="15" fill="#009F79"/>
<path d="M28.6331 9.68387C23.7613 9.71516 19.1041 12.1807 15.6054 15.9009C11.014 20.783 8.56304 27.7523 10.3607 33.9558C11.764 33.1998 13.1757 32.5819 14.5661 32.119C14.0224 21.5349 22.2358 13.9929 31.7562 14.0425C32.1219 12.894 32.6386 11.6958 33.314 10.444C31.9112 9.97735 30.5007 9.72555 29.1056 9.68929C28.9481 9.68525 28.7902 9.68293 28.633 9.68396L28.6331 9.68387ZM31.3131 15.6459C22.9294 15.7958 15.8518 22.2717 16.156 31.6569C17.1002 31.4223 18.0285 31.2631 18.9301 31.1897C20.1839 31.0877 21.3957 31.1499 22.5208 31.3992L31.9174 22.0027C31.4576 20.948 31.1858 19.821 31.1144 18.6726C31.0529 17.7053 31.1264 16.6975 31.3372 15.6459H31.3131ZM36.542 20.8638L35.0918 22.314L37.7129 24.9297L39.1577 23.4848L36.542 20.8638ZM33.3515 22.8404L23.0928 33.0992L26.9277 36.9287L37.1812 26.6753L33.3515 22.8404ZM49.6689 26.8015C48.4258 27.4725 47.2353 27.988 46.0944 28.3539C46.1589 37.8941 38.597 46.1258 27.9886 45.5654C27.5254 46.9494 26.9099 48.3551 26.157 49.7523C32.3609 51.5503 39.3324 49.0992 44.2147 44.5076C49.117 39.897 51.8216 33.2738 49.6692 26.8016L49.6689 26.8015ZM37.9814 28.147L28.684 37.4444C28.9616 38.6099 29.0352 39.8717 28.9284 41.1801C28.8543 42.0893 28.6919 43.0256 28.4532 43.9782C37.8707 44.2977 44.3626 37.1884 44.4886 28.7754C43.428 28.9908 42.4124 29.0679 41.4378 29.0064C40.21 28.9291 39.0575 28.6328 37.9814 28.147ZM22.5664 34.8394L9.72681 47.6791V50.4531H12.1894L25.1822 37.4604L22.5664 34.8394Z" fill="#009F79"/>
</svg>
