<svg width="22" height="22" viewBox="0 0 22 22" fill="none" xmlns="http://www.w3.org/2000/svg">
<path d="M17.7081 12.375H14.1468C13.6777 12.3775 13.2285 12.5649 12.8969 12.8967C12.5653 13.2285 12.378 13.6778 12.3758 14.147V17.7082C12.3758 18.1779 12.5624 18.6284 12.8945 18.9605C13.2267 19.2926 13.6771 19.4792 14.1468 19.4792H17.7081C18.1777 19.479 18.628 19.2923 18.9601 18.9602C19.2922 18.6282 19.4788 18.1778 19.4791 17.7082V14.147C19.4791 13.6773 19.2925 13.2268 18.9604 12.8947C18.6282 12.5625 18.1778 12.376 17.7081 12.376M17.7081 2.52087H4.29175C4.05918 2.52087 3.82889 2.56668 3.61402 2.65568C3.39915 2.74468 3.20392 2.87514 3.03947 3.03959C2.87501 3.20404 2.74456 3.39927 2.65556 3.61414C2.56656 3.82901 2.52075 4.0593 2.52075 4.29187V7.85312C2.52063 8.08577 2.56635 8.31616 2.6553 8.53114C2.74425 8.74611 2.87468 8.94145 3.03914 9.106C3.20361 9.27055 3.39888 9.40109 3.61381 9.49014C3.82874 9.5792 4.0591 9.62504 4.29175 9.62504H17.7081C18.1778 9.62504 18.6282 9.43845 18.9604 9.10633C19.2925 8.7742 19.4791 8.32374 19.4791 7.85404V4.29187C19.4791 3.82218 19.2925 3.37171 18.9604 3.03959C18.6282 2.70746 18.1778 2.52087 17.7081 2.52087ZM7.853 12.375H4.29175C4.0591 12.375 3.82874 12.4209 3.61381 12.5099C3.39888 12.599 3.20361 12.7295 3.03914 12.8941C2.87468 13.0586 2.74425 13.254 2.6553 13.4689C2.56635 13.6839 2.52063 13.9143 2.52075 14.147V17.7082C2.52075 18.1779 2.70734 18.6284 3.03947 18.9605C3.37159 19.2926 3.82205 19.4792 4.29175 19.4792H7.853C8.3227 19.4792 8.77316 19.2926 9.10529 18.9605C9.43742 18.6284 9.624 18.1779 9.624 17.7082V14.147C9.62183 13.6778 9.43458 13.2285 9.10295 12.8967C8.77132 12.5649 8.32212 12.3775 7.853 12.375Z" stroke="white" stroke-width="1.5" stroke-linecap="round" stroke-linejoin="round"/>
</svg>
