<svg width="22" height="22" viewBox="0 0 22 22" fill="none" xmlns="http://www.w3.org/2000/svg">
<path d="M15.533 18.9448V14.0553M16.963 14.0553V12.8333M16.963 20.1667V18.9448M15.533 16.5H18.393M18.393 16.5C18.8678 16.5 19.2519 16.9107 19.2519 17.4167V18.0281C19.2519 18.5341 18.8678 18.9448 18.3939 18.9448H14.6741M18.393 16.5C18.8669 16.5 19.2519 16.0893 19.2519 15.5833V14.9719C19.2519 14.4659 18.8678 14.0553 18.3939 14.0553H14.6741M13.4714 3.83718C12.1881 3.03785 8.89265 1.50518 5.92448 1.8966C7.72023 3.15243 8.6644 3.8271 11.2127 6.1316M17.0198 7.44243C17.3608 8.0071 17.9319 9.1016 18.3306 10.241M14.7611 9.73685C14.983 9.98893 15.2525 10.3693 15.4459 10.593M9.49215 9.54985L3.13048 16.0124C2.6144 16.5367 2.62173 17.3938 3.1479 17.9282C3.26964 18.0547 3.4154 18.1557 3.57666 18.2253C3.73792 18.2948 3.91143 18.3314 4.08703 18.333C4.26263 18.3347 4.43679 18.3012 4.5993 18.2347C4.76182 18.1682 4.90943 18.0699 5.03348 17.9456L11.3951 11.4831M10.8589 7.54052L13.3742 10.0953C13.4398 10.1627 13.5181 10.2163 13.6047 10.253C13.6912 10.2897 13.7843 10.3087 13.8783 10.309C13.9723 10.3092 14.0654 10.2907 14.1522 10.2545C14.2389 10.2182 14.3176 10.1651 14.3835 10.098L17.5001 6.93185C17.6337 6.79461 17.7083 6.61057 17.708 6.41906C17.7076 6.22755 17.6324 6.04378 17.4983 5.90702L14.983 3.35135C14.9174 3.28388 14.8389 3.23021 14.7522 3.19351C14.6655 3.15681 14.5724 3.13781 14.4783 3.13764C14.3842 3.13747 14.291 3.15613 14.2041 3.19252C14.1173 3.2289 14.0387 3.28228 13.9728 3.34952L10.8561 6.51477C10.7223 6.65205 10.6475 6.83629 10.6479 7.02802C10.6482 7.21975 10.7246 7.40372 10.8589 7.54052Z" stroke="white" stroke-width="1.5" stroke-linecap="round" stroke-linejoin="round"/>
</svg>
