<svg width="22" height="22" viewBox="0 0 22 22" fill="none" xmlns="http://www.w3.org/2000/svg">
<path d="M17.743 5.91796L7.74184 8.79996H18.1478C18.2937 8.79996 18.4336 8.85791 18.5368 8.96105C18.6399 9.0642 18.6978 9.20409 18.6978 9.34996V17.05C18.6978 17.7793 18.4081 18.4788 17.8924 18.9945C17.3767 19.5102 16.6772 19.8 15.9478 19.8H6.04784C5.31888 19.7994 4.61997 19.5094 4.10472 18.9937C3.58947 18.4781 3.30004 17.7789 3.30004 17.05V9.42806L3.01734 8.44576C2.91726 8.09871 2.88653 7.73534 2.9269 7.37641C2.96727 7.01748 3.07795 6.67002 3.25262 6.35387C3.4273 6.03772 3.66254 5.75908 3.94492 5.53386C4.22729 5.30864 4.55127 5.14125 4.89834 5.04126L14.41 2.29896C14.7571 2.19888 15.1205 2.16815 15.4794 2.20851C15.8383 2.24888 16.1858 2.35957 16.5019 2.53424C16.8181 2.70891 17.0967 2.94416 17.3219 3.22653C17.5472 3.50891 17.7145 3.83288 17.8145 4.17996L18.1192 5.23596C18.1394 5.30544 18.1457 5.37822 18.1377 5.45013C18.1297 5.52204 18.1076 5.59167 18.0727 5.65502C18.0377 5.71838 17.9906 5.77421 17.9341 5.81933C17.8775 5.86445 17.8126 5.89797 17.743 5.91796ZM4.22404 8.66796L4.89174 8.47546L6.47794 5.73096L5.20194 6.09946C4.78187 6.22065 4.42707 6.50361 4.21546 6.8862C4.00385 7.26879 3.95274 7.71972 4.07334 8.13996L4.22404 8.66796ZM6.41524 8.03656L8.74724 7.36336L10.3345 4.61666L7.99704 5.29096L7.97394 5.33716L6.41524 8.03656ZM12.6049 6.25236L14.1911 3.50456L11.8525 4.17886L11.8239 4.23716L10.2729 6.92446L12.6049 6.25236ZM15.5573 3.33516L15.5353 3.37476L14.1284 5.81236L16.9081 5.01156L16.7552 4.48356C16.6747 4.20325 16.5213 3.9493 16.3107 3.74757C16.1001 3.54584 15.8409 3.40354 15.5573 3.33516ZM4.40004 9.89996V17.05C4.40004 17.4876 4.57388 17.9073 4.88332 18.2167C5.19275 18.5261 5.61244 18.7 6.05004 18.7H15.95C16.3877 18.7 16.8073 18.5261 17.1168 18.2167C17.4262 17.9073 17.6 17.4876 17.6 17.05V9.89996H4.40004Z" fill="white"/>
</svg>
