<svg width="60" height="60" viewBox="0 0 60 60" fill="none" xmlns="http://www.w3.org/2000/svg">
<rect opacity="0.2" width="60" height="60" rx="15" fill="#CA10C5"/>
<path d="M46.5 20.8334L30 11.6667L13.5 20.8334V39.1667L30 48.3334L46.5 39.1667V20.8334ZM30 15.865L40.835 21.8784L35.3167 24.94C33.9783 23.5467 32.09 22.6667 30 22.6667C27.91 22.6667 26.0217 23.5467 24.6833 24.94L19.165 21.8784L30 15.865ZM28.1667 43.1267L17.1667 37.0217V24.9767L22.905 28.1667C22.74 28.735 22.6667 29.3584 22.6667 30C22.6667 33.41 24.995 36.2884 28.1667 37.095V43.1267ZM26.3333 30C26.3333 27.9834 27.9833 26.3334 30 26.3334C32.0167 26.3334 33.6667 27.9834 33.6667 30C33.6667 32.0167 32.0167 33.6667 30 33.6667C27.9833 33.6667 26.3333 32.0167 26.3333 30ZM31.8333 43.1267V37.1134C35.005 36.3067 37.3333 33.4284 37.3333 30.0184C37.3333 29.3767 37.26 28.7534 37.095 28.1667L42.8333 24.9767V37.0217L31.8333 43.1267Z" fill="#CA10C5"/>
</svg>
