<svg width="93" height="93" viewBox="0 0 93 93" fill="none" xmlns="http://www.w3.org/2000/svg">
<g filter="url(#filter0_bd_546_408)">
<rect width="64.7685" height="64.7685" rx="32.3843" transform="matrix(-1 1.74846e-07 1.74846e-07 1 78.8379 14.1646)" fill="url(#paint0_linear_546_408)" fill-opacity="0.26" shape-rendering="crispEdges"/>
<rect x="-0.395792" y="0.395792" width="63.9769" height="63.9769" rx="31.9885" transform="matrix(-1 1.74846e-07 1.74846e-07 1 78.0463 14.1646)" stroke="url(#paint1_linear_546_408)" stroke-width="0.791583" shape-rendering="crispEdges"/>
</g>
<path d="M59.9699 45.7471C60.3006 46.0968 60.4863 46.5711 60.4863 47.0656C60.4863 47.56 60.3006 48.0343 59.9699 48.384L49.9912 58.9331C49.8285 59.1112 49.6338 59.2533 49.4186 59.351C49.2034 59.4488 48.9719 59.5002 48.7377 59.5024C48.5035 59.5045 48.2712 59.4573 48.0544 59.3636C47.8377 59.2698 47.6407 59.1313 47.4751 58.9563C47.3095 58.7812 47.1785 58.573 47.0898 58.3438C47.0011 58.1146 46.9565 57.869 46.9585 57.6214C46.9605 57.3738 47.0092 57.1291 47.1016 56.9016C47.1941 56.6741 47.3285 56.4683 47.497 56.2963L54.4646 48.9304L32.025 48.9304C31.5571 48.9304 31.1085 48.7339 30.7777 48.3842C30.4469 48.0345 30.261 47.5601 30.261 47.0656C30.261 46.571 30.4469 46.0967 30.7777 45.747C31.1085 45.3972 31.5571 45.2008 32.025 45.2008L54.4646 45.2008L47.497 37.8348C47.1756 37.4831 46.9978 37.012 47.0019 36.5231C47.0059 36.0342 47.1914 35.5664 47.5184 35.2207C47.8455 34.8749 48.2879 34.6788 48.7504 34.6746C49.2129 34.6703 49.6585 34.8583 49.9912 35.198L59.9699 45.7471Z" fill="white"/>
<defs>
<filter id="filter0_bd_546_408" x="-47.4865" y="-47.3913" width="187.88" height="187.88" filterUnits="userSpaceOnUse" color-interpolation-filters="sRGB">
<feFlood flood-opacity="0" result="BackgroundImageFix"/>
<feGaussianBlur in="BackgroundImageFix" stdDeviation="30.7779"/>
<feComposite in2="SourceAlpha" operator="in" result="effect1_backgroundBlur_546_408"/>
<feColorMatrix in="SourceAlpha" type="matrix" values="0 0 0 0 0 0 0 0 0 0 0 0 0 0 0 0 0 0 127 0" result="hardAlpha"/>
<feOffset/>
<feGaussianBlur stdDeviation="6.6493"/>
<feComposite in2="hardAlpha" operator="out"/>
<feColorMatrix type="matrix" values="0 0 0 0 1 0 0 0 0 0 0 0 0 0 0.66875 0 0 0 0.25 0"/>
<feBlend mode="normal" in2="effect1_backgroundBlur_546_408" result="effect2_dropShadow_546_408"/>
<feBlend mode="normal" in="SourceGraphic" in2="effect2_dropShadow_546_408" result="shape"/>
</filter>
<linearGradient id="paint0_linear_546_408" x1="64.7685" y1="32.3843" x2="0" y2="32.3843" gradientUnits="userSpaceOnUse">
<stop offset="0.157055" stop-color="white" stop-opacity="0"/>
<stop offset="1" stop-color="#999999"/>
</linearGradient>
<linearGradient id="paint1_linear_546_408" x1="0" y1="32.3843" x2="64.7685" y2="32.3843" gradientUnits="userSpaceOnUse">
<stop stop-color="white"/>
<stop offset="1" stop-color="white" stop-opacity="0"/>
</linearGradient>
</defs>
</svg>
