<svg width="93" height="93" viewBox="0 0 93 93" fill="none" xmlns="http://www.w3.org/2000/svg">
<g filter="url(#filter0_bd_546_403)">
<rect x="14" y="14.1646" width="64.7685" height="64.7685" rx="32.3843" fill="url(#paint0_linear_546_403)" fill-opacity="0.26" shape-rendering="crispEdges"/>
<rect x="14.3958" y="14.5603" width="63.9769" height="63.9769" rx="31.9885" stroke="url(#paint1_linear_546_403)" stroke-width="0.791583" shape-rendering="crispEdges"/>
</g>
<path d="M32.868 45.7471C32.5373 46.0968 32.3516 46.5711 32.3516 47.0656C32.3516 47.56 32.5373 48.0343 32.868 48.384L42.8467 58.9331C43.0094 59.1112 43.2041 59.2533 43.4193 59.351C43.6345 59.4488 43.866 59.5002 44.1002 59.5024C44.3344 59.5045 44.5667 59.4573 44.7834 59.3636C45.0002 59.2698 45.1972 59.1313 45.3628 58.9563C45.5284 58.7812 45.6594 58.573 45.7481 58.3438C45.8368 58.1146 45.8814 57.869 45.8794 57.6214C45.8774 57.3738 45.8287 57.1291 45.7362 56.9016C45.6438 56.6741 45.5094 56.4683 45.3409 56.2963L38.3733 48.9304L60.8129 48.9304C61.2807 48.9304 61.7294 48.7339 62.0602 48.3842C62.391 48.0345 62.5769 47.5601 62.5769 47.0656C62.5769 46.571 62.391 46.0967 62.0602 45.747C61.7294 45.3972 61.2807 45.2008 60.8129 45.2008L38.3733 45.2008L45.3409 37.8348C45.6623 37.4831 45.8401 37.012 45.836 36.5231C45.832 36.0342 45.6465 35.5664 45.3195 35.2207C44.9924 34.8749 44.55 34.6788 44.0875 34.6746C43.625 34.6703 43.1794 34.8583 42.8467 35.198L32.868 45.7471Z" fill="white"/>
<defs>
<filter id="filter0_bd_546_403" x="-47.5559" y="-47.3913" width="187.88" height="187.88" filterUnits="userSpaceOnUse" color-interpolation-filters="sRGB">
<feFlood flood-opacity="0" result="BackgroundImageFix"/>
<feGaussianBlur in="BackgroundImageFix" stdDeviation="30.7779"/>
<feComposite in2="SourceAlpha" operator="in" result="effect1_backgroundBlur_546_403"/>
<feColorMatrix in="SourceAlpha" type="matrix" values="0 0 0 0 0 0 0 0 0 0 0 0 0 0 0 0 0 0 127 0" result="hardAlpha"/>
<feOffset/>
<feGaussianBlur stdDeviation="6.6493"/>
<feComposite in2="hardAlpha" operator="out"/>
<feColorMatrix type="matrix" values="0 0 0 0 1 0 0 0 0 0 0 0 0 0 0.66875 0 0 0 0.25 0"/>
<feBlend mode="normal" in2="effect1_backgroundBlur_546_403" result="effect2_dropShadow_546_403"/>
<feBlend mode="normal" in="SourceGraphic" in2="effect2_dropShadow_546_403" result="shape"/>
</filter>
<linearGradient id="paint0_linear_546_403" x1="78.7685" y1="46.5488" x2="14" y2="46.5488" gradientUnits="userSpaceOnUse">
<stop offset="0.157055" stop-color="white" stop-opacity="0"/>
<stop offset="1" stop-color="#999999"/>
</linearGradient>
<linearGradient id="paint1_linear_546_403" x1="14" y1="46.5488" x2="78.7685" y2="46.5488" gradientUnits="userSpaceOnUse">
<stop stop-color="white"/>
<stop offset="1" stop-color="white" stop-opacity="0"/>
</linearGradient>
</defs>
</svg>
