<svg width="50" height="49" viewBox="0 0 50 49" fill="none" xmlns="http://www.w3.org/2000/svg">
<rect x="0.130859" width="49" height="49" rx="24.5" fill="url(#paint0_linear_2248_1090)"/>
<g clip-path="url(#clip0_2248_1090)">
<path d="M14.045 29.1005C14.0933 29.1005 14.1342 29.0607 14.1412 29.0047L14.4041 26.9213L14.142 24.7904C14.1342 24.7344 14.0933 24.6943 14.045 24.6943C13.9954 24.6943 13.9531 24.7353 13.9465 24.7904L13.7168 26.9213L13.9465 29.004C13.9531 29.0599 13.9954 29.1005 14.045 29.1005Z" fill="white"/>
<path d="M13.1784 28.3082C13.2259 28.3082 13.2645 28.2713 13.2714 28.216L13.4751 26.9213L13.2714 25.6024C13.2644 25.5489 13.2259 25.5103 13.1784 25.5103C13.1288 25.5103 13.0904 25.5489 13.0834 25.6032L12.9131 26.9214L13.0834 28.2157C13.0904 28.2705 13.1288 28.3082 13.1784 28.3082Z" fill="white"/>
<path d="M15.0814 24.3935C15.0751 24.3258 15.0255 24.2764 14.964 24.2764C14.9029 24.2764 14.8532 24.3258 14.8475 24.3935L14.6279 26.921L14.8475 29.3562C14.8532 29.4235 14.9029 29.4723 14.964 29.4723C15.0255 29.4723 15.0751 29.4235 15.0814 29.3562L15.3298 26.921L15.0814 24.3935Z" fill="white"/>
<path d="M15.8935 29.5703C15.9655 29.5703 16.0238 29.511 16.0308 29.4335L16.2655 26.9216L16.0308 24.3236C16.0238 24.2456 15.9655 24.187 15.8935 24.187C15.8204 24.187 15.7613 24.2457 15.7563 24.324L15.5488 26.9216L15.7563 29.4335C15.7613 29.5111 15.8204 29.5703 15.8935 29.5703Z" fill="white"/>
<path d="M16.8302 29.611C16.9141 29.611 16.9815 29.5438 16.9884 29.4539L16.9876 29.4545L17.2087 26.9215L16.9876 24.5111C16.9814 24.4227 16.9141 24.3545 16.8302 24.3545C16.745 24.3545 16.6781 24.4227 16.673 24.5118L16.4775 26.9216L16.673 29.454C16.6781 29.5438 16.7451 29.611 16.8302 29.611Z" fill="white"/>
<path d="M18.1575 26.922L17.9501 23.0028C17.9444 22.9034 17.8669 22.8242 17.772 22.8242C17.6777 22.8242 17.6005 22.9033 17.5947 23.0028L17.4111 26.922L17.5947 29.4544C17.6005 29.5542 17.6777 29.6323 17.772 29.6323C17.867 29.6323 17.9444 29.5542 17.9501 29.4544V29.4551L18.1575 26.922Z" fill="white"/>
<path d="M18.723 29.6364C18.8276 29.6364 18.9144 29.5496 18.9193 29.4388V29.4405L19.1132 26.9226L18.9193 22.1062C18.9144 21.9955 18.8276 21.9087 18.723 21.9087C18.616 21.9087 18.53 21.9955 18.5242 22.1062L18.3535 26.9226L18.525 29.4396C18.53 29.5496 18.616 29.6364 18.723 29.6364Z" fill="white"/>
<path d="M19.6812 21.4873C19.5634 21.4873 19.4683 21.584 19.4635 21.706L19.3047 26.9242L19.4635 29.4148C19.4684 29.5361 19.5634 29.6322 19.6812 29.6322C19.7987 29.6322 19.8945 29.5369 19.8986 29.4144V29.4157L20.0788 26.9242L19.8986 21.706C19.8945 21.5832 19.7986 21.4873 19.6812 21.4873Z" fill="white"/>
<path d="M20.6482 29.6372C20.7775 29.6372 20.8806 29.5328 20.8854 29.3985V29.4L21.052 26.9242L20.8854 21.5307C20.8805 21.3968 20.7775 21.292 20.6482 21.292C20.518 21.292 20.4134 21.3968 20.4114 21.5307L20.2617 26.9242L20.4114 29.4C20.4134 29.5328 20.518 29.6372 20.6482 29.6372Z" fill="white"/>
<path d="M21.6223 29.6342C21.7619 29.6342 21.8751 29.52 21.8793 29.3751V29.3773L22.0327 26.9242L21.8793 21.6678C21.8751 21.523 21.7619 21.4092 21.6223 21.4092C21.4817 21.4092 21.3684 21.5229 21.3642 21.6678L21.2295 26.9242L21.3651 29.3761C21.3684 29.52 21.4817 29.6342 21.6223 29.6342Z" fill="white"/>
<path d="M23.0186 26.9247L22.8798 21.86C22.8764 21.7038 22.7541 21.5811 22.6024 21.5811C22.4503 21.5811 22.3279 21.7038 22.3247 21.861L22.2002 26.9247L22.3247 29.3618C22.3279 29.5168 22.4502 29.6396 22.6024 29.6396C22.754 29.6396 22.8764 29.5168 22.8798 29.3595V29.3618L23.0186 26.9247Z" fill="white"/>
<path d="M23.5902 29.6435C23.7515 29.6435 23.885 29.5093 23.8875 29.3444V29.3458L24.0135 26.9254L23.8875 20.8985C23.885 20.733 23.7515 20.5991 23.5902 20.5991C23.4291 20.5991 23.296 20.7336 23.2927 20.8994L23.1807 26.923L23.2927 29.3458C23.296 29.5093 23.4291 29.6435 23.5902 29.6435Z" fill="white"/>
<path d="M24.5754 20.0322C24.4013 20.0322 24.2601 20.1767 24.2572 20.3527L24.127 26.9263L24.258 29.3108C24.2601 29.4846 24.4014 29.6286 24.5754 29.6286C24.7469 29.6286 24.8908 29.4846 24.8916 29.3079V29.3108L25.0337 26.9263L24.8916 20.3527C24.8908 20.176 24.7469 20.0322 24.5754 20.0322Z" fill="white"/>
<path d="M25.4748 29.6459C25.4819 29.6465 33.4132 29.6503 33.4642 29.6503C35.0565 29.6503 36.3469 28.344 36.3469 26.7321C36.3469 25.121 35.0565 23.8145 33.4642 23.8145C33.069 23.8145 32.6924 23.8953 32.3491 24.0416C32.1208 21.4114 29.9419 19.3486 27.2839 19.3486C26.6341 19.3486 26.0005 19.4785 25.4409 19.6977C25.2231 19.7829 25.1648 19.8707 25.1631 20.0408V29.3006C25.1656 29.4795 25.302 29.6281 25.4748 29.6459Z" fill="white"/>
</g>
<defs>
<linearGradient id="paint0_linear_2248_1090" x1="6.77105" y1="-8.92187e-06" x2="44.6694" y2="4.75943" gradientUnits="userSpaceOnUse">
<stop stop-color="#D10ED1"/>
<stop offset="1" stop-color="#10A3DA"/>
</linearGradient>
<clipPath id="clip0_2248_1090">
<rect width="23.4348" height="23.4348" fill="white" transform="translate(12.9131 12.7827)"/>
</clipPath>
</defs>
</svg>
