<svg width="50" height="49" viewBox="0 0 50 49" fill="none" xmlns="http://www.w3.org/2000/svg">
<rect x="0.739258" width="49" height="49" rx="24.5" fill="url(#paint0_linear_2248_1088)"/>
<path d="M34.8256 16.5066C33.0715 15.7638 31.1723 15.2246 29.194 14.9131C29.1767 14.9126 29.1594 14.9156 29.1435 14.9218C29.1275 14.928 29.1133 14.9373 29.1017 14.9491C28.8643 15.3444 28.5873 15.8596 28.4027 16.255C26.3044 15.9674 24.1704 15.9674 22.0721 16.255C21.8874 15.8476 21.6105 15.3444 21.3599 14.9491C21.3467 14.9251 21.3071 14.9131 21.2676 14.9131C19.2893 15.2246 17.4033 15.7638 15.636 16.5066C15.6228 16.5066 15.6096 16.5185 15.5964 16.5305C12.0091 21.4066 11.0199 26.1509 11.5079 30.8473C11.5079 30.8712 11.5211 30.8952 11.5474 30.9072C13.9214 32.4886 16.2031 33.4471 18.4584 34.082C18.4979 34.094 18.5375 34.082 18.5507 34.0581C19.0782 33.3991 19.553 32.7043 19.9619 31.9735C19.9883 31.9255 19.9619 31.8776 19.9091 31.8656C19.1574 31.6021 18.4452 31.2906 17.7462 30.9312C17.6934 30.9072 17.6934 30.8353 17.733 30.7994C17.8781 30.7035 18.0231 30.5957 18.1682 30.4998C18.1946 30.4759 18.2342 30.4759 18.2605 30.4879C22.7975 32.3688 27.6905 32.3688 32.1747 30.4879C32.2011 30.4759 32.2406 30.4759 32.267 30.4998C32.4121 30.6077 32.5571 30.7035 32.7022 30.8113C32.755 30.8473 32.755 30.9192 32.689 30.9431C32.0032 31.3145 31.2778 31.614 30.5261 31.8776C30.4733 31.8896 30.4601 31.9495 30.4733 31.9854C30.8954 32.7163 31.3702 33.4111 31.8845 34.0701C31.9241 34.082 31.9637 34.094 32.0032 34.082C34.2717 33.4471 36.5533 32.4886 38.9273 30.9072C38.9537 30.8952 38.9669 30.8712 38.9669 30.8473C39.5472 25.4201 38.0041 20.7117 34.8784 16.5305C34.8652 16.5185 34.852 16.5066 34.8256 16.5066ZM20.6477 27.9839C19.2893 27.9839 18.155 26.8458 18.155 25.4441C18.155 24.0423 19.2629 22.9042 20.6477 22.9042C22.0457 22.9042 23.1536 24.0543 23.1404 25.4441C23.1404 26.8458 22.0325 27.9839 20.6477 27.9839ZM29.8403 27.9839C28.4818 27.9839 27.3476 26.8458 27.3476 25.4441C27.3476 24.0423 28.4554 22.9042 29.8403 22.9042C31.2383 22.9042 32.3461 24.0543 32.3329 25.4441C32.3329 26.8458 31.2383 27.9839 29.8403 27.9839Z" fill="white"/>
<defs>
<linearGradient id="paint0_linear_2248_1088" x1="7.37945" y1="-8.92187e-06" x2="45.2778" y2="4.75943" gradientUnits="userSpaceOnUse">
<stop stop-color="#D10ED1"/>
<stop offset="1" stop-color="#10A3DA"/>
</linearGradient>
</defs>
</svg>
