<svg width="50" height="49" viewBox="0 0 50 49" fill="none" xmlns="http://www.w3.org/2000/svg">
<rect x="0.56543" width="49" height="49" rx="24.5" fill="url(#paint0_linear_2248_1081)"/>
<path d="M20.1437 12.7827H29.9864C33.7359 12.7827 36.7824 15.8292 36.7824 19.5788V29.4214C36.7824 31.2238 36.0664 32.9525 34.7919 34.227C33.5174 35.5015 31.7888 36.2175 29.9864 36.2175H20.1437C16.3942 36.2175 13.3477 33.171 13.3477 29.4214V19.5788C13.3477 17.7764 14.0637 16.0478 15.3382 14.7732C16.6127 13.4987 18.3413 12.7827 20.1437 12.7827ZM19.9094 15.1262C18.7906 15.1262 17.7177 15.5706 16.9266 16.3617C16.1356 17.1528 15.6911 18.2257 15.6911 19.3445V29.6558C15.6911 31.9875 17.5776 33.874 19.9094 33.874H30.2207C31.3395 33.874 32.4124 33.4296 33.2035 32.6385C33.9945 31.8474 34.439 30.7745 34.439 29.6558V19.3445C34.439 17.0127 32.5525 15.1262 30.2207 15.1262H19.9094ZM31.2167 16.8838C31.6051 16.8838 31.9777 17.0381 32.2524 17.3128C32.527 17.5875 32.6814 17.96 32.6814 18.3485C32.6814 18.7369 32.527 19.1095 32.2524 19.3842C31.9777 19.6588 31.6051 19.8131 31.2167 19.8131C30.8282 19.8131 30.4557 19.6588 30.181 19.3842C29.9063 19.1095 29.752 18.7369 29.752 18.3485C29.752 17.96 29.9063 17.5875 30.181 17.3128C30.4557 17.0381 30.8282 16.8838 31.2167 16.8838ZM25.065 18.6414C26.6189 18.6414 28.1091 19.2587 29.2078 20.3574C30.3065 21.4561 30.9237 22.9463 30.9237 24.5001C30.9237 26.0539 30.3065 27.5441 29.2078 28.6428C28.1091 29.7415 26.6189 30.3588 25.065 30.3588C23.5112 30.3588 22.021 29.7415 20.9223 28.6428C19.8236 27.5441 19.2064 26.0539 19.2064 24.5001C19.2064 22.9463 19.8236 21.4561 20.9223 20.3574C22.021 19.2587 23.5112 18.6414 25.065 18.6414ZM25.065 20.9849C24.1328 20.9849 23.2386 21.3552 22.5794 22.0145C21.9202 22.6737 21.5498 23.5678 21.5498 24.5001C21.5498 25.4324 21.9202 26.3265 22.5794 26.9857C23.2386 27.645 24.1328 28.0153 25.065 28.0153C25.9973 28.0153 26.8915 27.645 27.5507 26.9857C28.2099 26.3265 28.5803 25.4324 28.5803 24.5001C28.5803 23.5678 28.2099 22.6737 27.5507 22.0145C26.8915 21.3552 25.9973 20.9849 25.065 20.9849Z" fill="white"/>
<defs>
<linearGradient id="paint0_linear_2248_1081" x1="7.20562" y1="-8.92187e-06" x2="45.104" y2="4.75943" gradientUnits="userSpaceOnUse">
<stop stop-color="#D10ED1"/>
<stop offset="1" stop-color="#10A3DA"/>
</linearGradient>
</defs>
</svg>
