<svg width="50" height="49" viewBox="0 0 50 49" fill="none" xmlns="http://www.w3.org/2000/svg">
<rect x="0.783203" width="49" height="49" rx="24.5" fill="url(#paint0_linear_2248_1077)"/>
<path d="M30.9082 16.4542C30.0724 15.4382 29.6117 14.1334 29.6121 12.7827H25.8335V28.9267C25.8044 29.8003 25.458 30.6278 24.8672 31.2349C24.2764 31.842 23.4875 32.1814 22.6664 32.1815C20.93 32.1815 19.4871 30.6713 19.4871 28.7965C19.4871 26.5572 21.5169 24.8777 23.608 25.5677V21.4536C19.3892 20.8547 15.6963 24.3439 15.6963 28.7965C15.6963 33.1319 19.0713 36.2175 22.6542 36.2175C26.4938 36.2175 29.6121 32.8976 29.6121 28.7965V20.6073C31.1442 21.7789 32.9838 22.4074 34.8702 22.404V18.381C34.8702 18.381 32.5713 18.4982 30.9082 16.4542Z" fill="white"/>
<defs>
<linearGradient id="paint0_linear_2248_1077" x1="7.42339" y1="-8.92187e-06" x2="45.3218" y2="4.75943" gradientUnits="userSpaceOnUse">
<stop stop-color="#D10ED1"/>
<stop offset="1" stop-color="#10A3DA"/>
</linearGradient>
</defs>
</svg>
