<svg width="50" height="49" viewBox="0 0 50 49" fill="none" xmlns="http://www.w3.org/2000/svg">
<rect x="0.391602" width="49" height="49" rx="24.5" fill="url(#paint0_linear_2248_1075)"/>
<path d="M22.5477 28.6087L28.6291 24.5L22.5477 20.3913V28.6087ZM36.093 17.885C36.2454 18.5287 36.3508 19.3916 36.4211 20.4872C36.5032 21.5829 36.5383 22.5279 36.5383 23.3496L36.6086 24.5C36.6086 27.4994 36.4211 29.7044 36.093 31.115C35.8001 32.3477 35.1205 33.142 34.0659 33.4844C33.5152 33.6624 32.5075 33.7857 30.9608 33.8679C29.4376 33.9637 28.0432 34.0048 26.7543 34.0048L24.8912 34.087C19.9816 34.087 16.9234 33.8679 15.7165 33.4844C14.6619 33.142 13.9823 32.3477 13.6894 31.115C13.5371 30.4713 13.4316 29.6085 13.3613 28.5129C13.2793 27.4172 13.2441 26.4722 13.2441 25.6505L13.1738 24.5C13.1738 21.5007 13.3613 19.2957 13.6894 17.885C13.9823 16.6524 14.6619 15.8581 15.7165 15.5157C16.2672 15.3377 17.2749 15.2144 18.8216 15.1322C20.3449 15.0363 21.7392 14.9953 23.0282 14.9953L24.8912 14.9131C29.8008 14.9131 32.859 15.1322 34.0659 15.5157C35.1205 15.8581 35.8001 16.6524 36.093 17.885Z" fill="white"/>
<defs>
<linearGradient id="paint0_linear_2248_1075" x1="7.03179" y1="-8.92187e-06" x2="44.9302" y2="4.75943" gradientUnits="userSpaceOnUse">
<stop stop-color="#D10ED1"/>
<stop offset="1" stop-color="#10A3DA"/>
</linearGradient>
</defs>
</svg>
