<svg width="22" height="22" viewBox="0 0 22 22" fill="none" xmlns="http://www.w3.org/2000/svg">
<path d="M19.6956 18.3045C18.3369 15.9567 16.204 14.3093 13.7255 13.6106C14.9305 12.9981 15.894 11.9976 16.4608 10.7704C17.0276 9.5433 17.1646 8.16102 16.8497 6.84651C16.5347 5.53199 15.7863 4.36185 14.7249 3.52476C13.6636 2.68767 12.3513 2.23242 10.9996 2.23242C9.64787 2.23242 8.33554 2.68767 7.27422 3.52476C6.21289 4.36185 5.46443 5.53199 5.1495 6.84651C4.83457 8.16102 4.97155 9.5433 5.53833 10.7704C6.10511 11.9976 7.06867 12.9981 8.27364 13.6106C5.7952 14.3084 3.66224 15.9558 2.30356 18.3045C2.26626 18.3632 2.24121 18.4288 2.22992 18.4974C2.21863 18.5661 2.22134 18.6363 2.23789 18.7038C2.25443 18.7713 2.28447 18.8348 2.32619 18.8905C2.36791 18.9461 2.42046 18.9927 2.48067 19.0275C2.54087 19.0623 2.6075 19.0846 2.67653 19.093C2.74557 19.1014 2.81558 19.0957 2.88237 19.0763C2.94916 19.057 3.01134 19.0243 3.06517 18.9802C3.119 18.9362 3.16336 18.8818 3.1956 18.8201C4.84645 15.9679 7.76317 14.2654 10.9996 14.2654C14.236 14.2654 17.1527 15.9679 18.8036 18.8201C18.8358 18.8818 18.8802 18.9362 18.934 18.9802C18.9878 19.0243 19.05 19.057 19.1168 19.0763C19.1836 19.0957 19.2536 19.1014 19.3226 19.093C19.3917 19.0846 19.4583 19.0623 19.5185 19.0275C19.5787 18.9927 19.6312 18.9461 19.673 18.8905C19.7147 18.8348 19.7447 18.7713 19.7613 18.7038C19.7778 18.6363 19.7805 18.5661 19.7692 18.4974C19.758 18.4288 19.7329 18.3632 19.6956 18.3045ZM6.0152 8.24982C6.0152 7.26401 6.30753 6.30033 6.85522 5.48065C7.40291 4.66098 8.18137 4.02212 9.09214 3.64486C10.0029 3.2676 11.0051 3.1689 11.972 3.36122C12.9389 3.55354 13.827 4.02826 14.5241 4.72534C15.2211 5.42241 15.6959 6.31054 15.8882 7.27742C16.0805 8.24429 15.9818 9.24648 15.6045 10.1573C15.2273 11.068 14.5884 11.8465 13.7687 12.3942C12.9491 12.9419 11.9854 13.2342 10.9996 13.2342C9.67813 13.2326 8.41126 12.707 7.47685 11.7725C6.54245 10.8381 6.0168 9.57127 6.0152 8.24982Z" fill="white"/>
</svg>
