<svg width="23" height="23" viewBox="0 0 23 23" fill="none" xmlns="http://www.w3.org/2000/svg">
<g id="wc-meta">
<circle id="Box" cx="11.4301" cy="11.4403" r="10.7963" fill="#F7F9FB"/>
<g id="Logo">
<path id="1" d="M17.9159 4.69263L12.2925 8.90992L13.3382 6.42453L17.9159 4.69263Z" fill="#E17726" stroke="#E17726" stroke-width="0.168692" stroke-linecap="round" stroke-linejoin="round"/>
<path id="2" d="M4.94482 4.69263L10.5182 8.94928L9.52256 6.42453L4.94482 4.69263Z" fill="#E27625" stroke="#E27625" stroke-width="0.168692" stroke-linecap="round" stroke-linejoin="round"/>
<path id="3" d="M15.8913 14.4707L14.395 16.7874L17.5989 17.6815L18.5167 14.5213L15.8913 14.4707Z" fill="#E27625" stroke="#E27625" stroke-width="0.168692" stroke-linecap="round" stroke-linejoin="round"/>
<path id="4" d="M4.34961 14.5213L5.26181 17.6815L8.46011 16.7874L6.96942 14.4707L4.34961 14.5213Z" fill="#E27625" stroke="#E27625" stroke-width="0.168692" stroke-linecap="round" stroke-linejoin="round"/>
<path id="5" d="M8.28789 10.5576L7.39795 11.9184L10.5684 12.0646L10.4628 8.60645L8.28789 10.5576Z" fill="#E27625" stroke="#E27625" stroke-width="0.168692" stroke-linecap="round" stroke-linejoin="round"/>
<path id="6" d="M14.573 10.5579L12.3648 8.56738L12.2925 12.0649L15.4629 11.9187L14.573 10.5579Z" fill="#E27625" stroke="#E27625" stroke-width="0.168692" stroke-linecap="round" stroke-linejoin="round"/>
<path id="7" d="M8.46045 16.7875L10.3794 15.8485L8.72745 14.5439L8.46045 16.7875Z" fill="#E27625" stroke="#E27625" stroke-width="0.168692" stroke-linecap="round" stroke-linejoin="round"/>
<path id="8" opacity="0.8" d="M12.4819 15.8485L14.3953 16.7875L14.1339 14.5439L12.4819 15.8485Z" fill="#E27625" stroke="#E27625" stroke-width="0.168692" stroke-linecap="round" stroke-linejoin="round"/>
<path id="9" d="M14.3953 16.7879L12.4819 15.8489L12.6377 17.1084L12.621 17.6426L14.3953 16.7879Z" fill="#D5BFB2" stroke="#D5BFB2" stroke-width="0.168692" stroke-linecap="round" stroke-linejoin="round"/>
<path id="10" d="M8.46045 16.7879L10.2404 17.6426L10.2292 17.1084L10.3794 15.8489L8.46045 16.7879Z" fill="#D5BFB2" stroke="#D5BFB2" stroke-width="0.168692" stroke-linecap="round" stroke-linejoin="round"/>
<path id="11" d="M10.2734 13.7121L8.68262 13.2398L9.80618 12.7168L10.2734 13.7121Z" fill="#233447" stroke="#233447" stroke-width="0.168692" stroke-linecap="round" stroke-linejoin="round"/>
<path id="12" d="M12.5874 13.7121L13.0546 12.7168L14.1838 13.2398L12.5874 13.7121Z" fill="#233447" stroke="#233447" stroke-width="0.168692" stroke-linecap="round" stroke-linejoin="round"/>
<path id="13" d="M8.4599 16.7874L8.73803 14.4707L6.96924 14.5213L8.4599 16.7874Z" fill="#CC6228" stroke="#CC6228" stroke-width="0.168692" stroke-linecap="round" stroke-linejoin="round"/>
<path id="14" d="M14.1226 14.4707L14.3951 16.7874L15.8914 14.5213L14.1226 14.4707Z" fill="#CC6228" stroke="#CC6228" stroke-width="0.168692" stroke-linecap="round" stroke-linejoin="round"/>
<path id="15" d="M15.4629 11.9177L12.2925 12.0639L12.5873 13.7115L13.0545 12.7162L14.1836 13.2392L15.4629 11.9177Z" fill="#CC6228" stroke="#CC6228" stroke-width="0.168692" stroke-linecap="round" stroke-linejoin="round"/>
<path id="16" d="M8.68282 13.2392L9.80639 12.7162L10.2736 13.7115L10.5684 12.0639L7.39795 11.9177L8.68282 13.2392Z" fill="#CC6228" stroke="#CC6228" stroke-width="0.168692" stroke-linecap="round" stroke-linejoin="round"/>
<path id="17" d="M7.39795 11.9177L8.72733 14.5437L8.68281 13.2392L7.39795 11.9177Z" fill="#E27525" stroke="#E27525" stroke-width="0.168692" stroke-linecap="round" stroke-linejoin="round"/>
<path id="18" d="M14.1838 13.2392L14.1338 14.5437L15.4632 11.9177L14.1838 13.2392Z" fill="#E27525" stroke="#E27525" stroke-width="0.168692" stroke-linecap="round" stroke-linejoin="round"/>
<path id="19" d="M10.5683 12.0647L10.2734 13.7123L10.6461 15.6578L10.7296 13.0937L10.5683 12.0647Z" fill="#E27525" stroke="#E27525" stroke-width="0.168692" stroke-linecap="round" stroke-linejoin="round"/>
<path id="20" d="M12.2925 12.0647L12.1367 13.0881L12.2146 15.6578L12.5873 13.7123L12.2925 12.0647Z" fill="#E27525" stroke="#E27525" stroke-width="0.168692" stroke-linecap="round" stroke-linejoin="round"/>
<path id="21" d="M12.5875 13.7126L12.2148 15.6581L12.4818 15.8493L14.1338 14.5448L14.1839 13.2402L12.5875 13.7126Z" fill="#F5841F" stroke="#F5841F" stroke-width="0.168692" stroke-linecap="round" stroke-linejoin="round"/>
<path id="22" d="M8.68262 13.2402L8.72715 14.5448L10.3791 15.8493L10.6461 15.6581L10.2734 13.7126L8.68262 13.2402Z" fill="#F5841F" stroke="#F5841F" stroke-width="0.168692" stroke-linecap="round" stroke-linejoin="round"/>
<path id="23" d="M12.621 17.6428L12.6377 17.1086L12.4931 16.9849H10.3683L10.2292 17.1086L10.2404 17.6428L8.46045 16.7881L9.08342 17.3054L10.346 18.1882H12.5097L13.7779 17.3054L14.3953 16.7881L12.621 17.6428Z" fill="#C0AC9D" stroke="#C0AC9D" stroke-width="0.168692" stroke-linecap="round" stroke-linejoin="round"/>
<path id="24" d="M12.4817 15.8489L12.2147 15.6577H10.6462L10.3792 15.8489L10.229 17.1085L10.3681 16.9847H12.4928L12.6375 17.1085L12.4817 15.8489Z" fill="#161616" stroke="#161616" stroke-width="0.168692" stroke-linecap="round" stroke-linejoin="round"/>
<path id="25" d="M18.1554 9.18544L18.6282 6.85751L17.9162 4.69263L12.4819 8.76937L14.5733 10.5575L17.5268 11.4291L18.1776 10.6587L17.894 10.4506L18.3445 10.0346L17.9997 9.76464L18.4502 9.416L18.1554 9.18544Z" fill="#763E1A" stroke="#763E1A" stroke-width="0.168692" stroke-linecap="round" stroke-linejoin="round"/>
<path id="26" d="M4.23291 6.85751L4.71126 9.18544L4.40534 9.416L4.86144 9.76464L4.51658 10.0346L4.96712 10.4506L4.68345 10.6587L5.33423 11.4291L8.2878 10.5575L10.3792 8.76937L4.94488 4.69263L4.23291 6.85751Z" fill="#763E1A" stroke="#763E1A" stroke-width="0.168692" stroke-linecap="round" stroke-linejoin="round"/>
<path id="27" d="M17.5268 11.4294L14.5732 10.5579L15.4632 11.9187L14.1338 14.5446L15.8915 14.5221H18.5168L17.5268 11.4294Z" fill="#F5841F" stroke="#F5841F" stroke-width="0.168692" stroke-linecap="round" stroke-linejoin="round"/>
<path id="28" d="M8.28765 10.5579L5.33412 11.4294L4.34961 14.5221H6.96942L8.72707 14.5446L7.39771 11.9187L8.28765 10.5579Z" fill="#F5841F" stroke="#F5841F" stroke-width="0.168692" stroke-linecap="round" stroke-linejoin="round"/>
<path id="29" d="M12.2925 12.0647L12.4816 8.7696L13.3381 6.4248H9.52246L10.379 8.7696L10.5681 12.0647L10.6405 13.0994L10.646 15.6579H12.2146L12.2201 13.0994L12.2925 12.0647Z" fill="#F5841F" stroke="#F5841F" stroke-width="0.168692" stroke-linecap="round" stroke-linejoin="round"/>
</g>
</g>
</svg>
