<svg width="22" height="22" viewBox="0 0 22 22" fill="none" xmlns="http://www.w3.org/2000/svg">
<g id="solar:key-linear">
<g id="Group">
<path id="Vector" d="M14.3722 13.3716C17.5714 13.3716 20.1655 10.7884 20.1655 7.60208C20.1655 4.41575 17.5714 1.8335 14.3722 1.8335C11.173 1.8335 8.58161 4.41666 8.58161 7.60208C8.58161 9.07791 9.25444 10.1513 9.25444 10.1513L2.24928 17.1272C1.93486 17.4407 1.49486 18.2547 2.24928 19.0063L3.05778 19.8112C3.37219 20.0797 4.16236 20.4556 4.80861 19.8112L5.75278 18.8725C6.69511 19.8112 7.77311 19.2749 8.17736 18.7377C8.85019 17.7991 8.04261 16.8595 8.04261 16.8595L8.31211 16.5909C9.60461 17.8797 10.7367 17.1281 11.1409 16.5909C11.8147 15.6522 11.1409 14.7127 11.1409 14.7127C10.8714 14.1764 10.3324 14.1764 11.0062 13.5054L11.8147 12.7006C12.4609 13.2368 13.7901 13.3716 14.374 13.3716H14.3722Z" stroke="white" stroke-linejoin="round"/>
<path id="Vector_2" d="M16.3934 7.60285C16.3922 8.13754 16.1787 8.64987 15.7999 9.02718C15.421 9.40449 14.9078 9.6159 14.3731 9.61493C13.8384 9.6159 13.3252 9.40449 12.9464 9.02718C12.5675 8.64987 12.354 8.13754 12.3528 7.60285C12.3533 7.33801 12.4059 7.07587 12.5077 6.83138C12.6095 6.58689 12.7584 6.36485 12.946 6.17792C13.1336 5.991 13.3562 5.84285 13.6011 5.74195C13.8459 5.64105 14.1083 5.58937 14.3731 5.58985C14.6379 5.58937 14.9003 5.64105 15.1451 5.74195C15.39 5.84285 15.6126 5.991 15.8002 6.17792C15.9878 6.36485 16.1367 6.58689 16.2385 6.83138C16.3403 7.07587 16.393 7.33801 16.3934 7.60285Z" stroke="white" stroke-width="1.375"/>
</g>
</g>
</svg>
