<svg width="22" height="22" viewBox="0 0 22 22" fill="none" xmlns="http://www.w3.org/2000/svg">
<path d="M19.7498 7.27791C19.4919 7.02014 19.1422 6.87533 18.7776 6.87533C18.413 6.87533 18.0634 7.02014 17.8055 7.27791L10.9993 14.0841L4.19308 7.27791C3.93375 7.02745 3.58642 6.88885 3.2259 6.89199C2.86539 6.89512 2.52052 7.03973 2.26558 7.29466C2.01065 7.5496 1.86604 7.89446 1.86291 8.25498C1.85978 8.6155 1.99837 8.96283 2.24884 9.22215L10.0272 17.0005C10.285 17.2583 10.6347 17.4031 10.9993 17.4031C11.3639 17.4031 11.7136 17.2583 11.9714 17.0005L19.7498 9.22215C20.0075 8.9643 20.1523 8.61463 20.1523 8.25003C20.1523 7.88543 20.0075 7.53576 19.7498 7.27791Z" fill="white"/>
</svg>
