<svg width="24" height="24" viewBox="0 0 24 24" fill="none" xmlns="http://www.w3.org/2000/svg">
<g clip-path="url(#clip0_1564_8143)">
<path fill-rule="evenodd" clip-rule="evenodd" d="M12.0125 14.9613L19.4214 22.3616C19.8145 22.7543 20.3477 22.9749 20.9037 22.9749C21.4597 22.9749 21.9929 22.7543 22.386 22.3616C22.7791 21.969 23 21.4364 23 20.881C23 20.3257 22.7791 19.7931 22.386 19.4004L14.9744 12L22.3846 4.59962C22.5792 4.40518 22.7335 4.17437 22.8388 3.92035C22.944 3.66634 22.9982 3.39411 22.9981 3.11919C22.998 2.84428 22.9438 2.57207 22.8384 2.3181C22.733 2.06414 22.5786 1.8334 22.3839 1.63905C22.1892 1.4447 21.9582 1.29056 21.7039 1.18541C21.4496 1.08027 21.177 1.02618 20.9018 1.02625C20.6266 1.02631 20.354 1.08052 20.0998 1.18579C19.8455 1.29105 19.6145 1.44531 19.42 1.63975L12.0125 9.04013L4.6037 1.63975C4.41048 1.43973 4.17931 1.28016 3.92369 1.17033C3.66806 1.06051 3.3931 1.00263 3.11484 1.00009C2.83659 0.997542 2.56061 1.05038 2.30301 1.15551C2.04541 1.26064 1.81136 1.41596 1.6145 1.6124C1.41764 1.80885 1.26192 2.0425 1.15643 2.2997C1.05094 2.5569 0.997785 2.83252 1.00007 3.11046C1.00236 3.3884 1.06004 3.6631 1.16975 3.91854C1.27945 4.17398 1.43899 4.40503 1.63906 4.59823L9.05068 12L1.64045 19.4018C1.44039 19.595 1.28085 19.826 1.17114 20.0815C1.06143 20.3369 1.00375 20.6116 1.00147 20.8895C0.999182 21.1675 1.05234 21.4431 1.15783 21.7003C1.26332 21.9575 1.41904 22.1911 1.6159 22.3876C1.81276 22.584 2.04681 22.7394 2.30441 22.8445C2.562 22.9496 2.83798 23.0025 3.11624 22.9999C3.3945 22.9974 3.66946 22.9395 3.92508 22.8297C4.18071 22.7198 4.41188 22.5603 4.6051 22.3603L12.0125 14.9613Z" fill="white"/>
</g>
<defs>
<clipPath id="clip0_1564_8143">
<rect width="24" height="24" fill="white"/>
</clipPath>
</defs>
</svg>
