<svg width="70" height="70" viewBox="0 0 70 70" fill="none" xmlns="http://www.w3.org/2000/svg">
<g clip-path="url(#clip0_1493_2553)">
<path d="M26.5467 24.3842C26.5467 26.0987 25.8656 27.7431 24.6532 28.9554C23.4408 30.1678 21.7965 30.8489 20.0819 30.8489C18.3674 30.8489 16.723 30.1678 15.5107 28.9554C14.2983 27.7431 13.6172 26.0987 13.6172 24.3842C13.6172 22.6696 14.2983 21.0253 15.5107 19.8129C16.723 18.6005 18.3674 17.9194 20.0819 17.9194C21.7965 17.9194 23.4408 18.6005 24.6532 19.8129C25.8656 21.0253 26.5467 22.6696 26.5467 24.3842Z" fill="#828282"/>
<path d="M9.30715 4.98999C7.02108 4.98999 4.82864 5.89813 3.21214 7.51463C1.59564 9.13113 0.6875 11.3236 0.6875 13.6096V56.7079C0.6875 58.994 1.59564 61.1864 3.21214 62.8029C4.82864 64.4194 7.02108 65.3276 9.30715 65.3276H61.0251C63.3111 65.3276 65.5036 64.4194 67.1201 62.8029C68.7366 61.1864 69.6447 58.994 69.6447 56.7079V13.6096C69.6447 11.3236 68.7366 9.13113 67.1201 7.51463C65.5036 5.89813 63.3111 4.98999 61.0251 4.98999H9.30715ZM61.0251 9.29982C62.1681 9.29982 63.2643 9.75389 64.0726 10.5621C64.8808 11.3704 65.3349 12.4666 65.3349 13.6096V41.6235L49.0567 33.2323C48.6525 33.0298 48.1949 32.9596 47.7486 33.0315C47.3024 33.1034 46.89 33.3139 46.5699 33.6331L30.5805 49.6226L19.1163 41.9855C18.7024 41.71 18.2059 41.586 17.7111 41.6347C17.2162 41.6834 16.7534 41.9018 16.4011 42.2528L4.99733 52.3981V13.6096C4.99733 12.4666 5.4514 11.3704 6.25965 10.5621C7.06789 9.75389 8.16412 9.29982 9.30715 9.29982H61.0251Z" fill="#828282"/>
</g>
<defs>
<clipPath id="clip0_1493_2553">
<rect width="68.9572" height="68.9572" fill="white" transform="translate(0.679688 0.680176)"/>
</clipPath>
</defs>
</svg>
