<svg width="43" height="43" viewBox="0 0 43 43" fill="none" xmlns="http://www.w3.org/2000/svg">
<path d="M30.4726 8.37358C29.4753 6.57654 28.2802 5.66577 26.9204 5.66577C25.3556 5.66577 23.7306 6.89784 22.0888 9.32854C21.885 9.6312 21.6886 9.93886 21.5 10.2512C21.3115 9.93873 21.1152 9.63106 20.9111 9.32854C19.2699 6.89784 17.6443 5.66577 16.0796 5.66577C14.7203 5.66577 13.5247 6.57654 12.5273 8.37358C11.782 9.71852 11.8435 10.7744 12.2 11.3471C12.8432 12.3803 14.4874 12.9865 16.801 13.3843C18.5778 13.6906 20.4572 13.736 21.4199 13.736H21.5806C22.5427 13.736 24.4228 13.6906 26.1989 13.3843C28.512 12.9865 30.1561 12.3797 30.7999 11.3471C31.1553 10.7738 31.2186 9.71852 30.4726 8.37358Z" fill="#D22F27"/>
<path d="M9.55566 21.5H32.8473V36.4306H9.55566V21.5Z" fill="#FCEA2B"/>
<path d="M31.8859 21.2014L10.1523 21.2361V24.5208L26.3627 26.8673L32.8468 27.7709V21.2361L31.8859 21.2014Z" fill="#F1B31C"/>
<path d="M17.7461 35.8334H25.2544V26.4409L17.7461 24.9556V35.8334Z" fill="#EA5A47"/>
<path d="M8.36133 12.5417H34.6391V20.9029H8.36133V12.5417Z" fill="#FCEA2B"/>
<path d="M17.7461 13.1389H25.2538V20.9028H17.7461V13.1389Z" fill="#EA5A47"/>
<path d="M25.2544 21.2014L17.7461 21.2134V25.6053L25.2544 26.7V21.2014Z" fill="#D22F27"/>
<path d="M9.76898 21.2013H8.36133V12.7548H10.3656H32.3046H34.6391V21.2013H33.2315V36.2173H9.76898V21.2013ZM9.76898 21.2013H33.7009M30.4353 10.8992C30.6646 10.314 30.7291 9.47008 30.1426 8.37358C29.1823 6.57654 28.0308 5.66577 26.7217 5.66577C25.2137 5.66577 23.6484 6.89784 22.067 9.32854C21.8703 9.63142 21.6812 9.93909 21.4996 10.2512C21.3185 9.93897 21.1295 9.6313 20.9329 9.32854C19.352 6.89784 17.7861 5.66577 16.2787 5.66577C14.969 5.66577 13.8181 6.57654 12.8566 8.37358C12.3185 9.38288 12.3293 10.1778 12.5138 10.7547" stroke="black" stroke-width="1.52778" stroke-miterlimit="10" stroke-linecap="round" stroke-linejoin="round"/>
<path d="M25.2544 35.8334V26.4408M17.7461 24.9556V35.8334M25.2544 20.9028V13.1389M17.7461 13.1389V20.9028M25.2544 26.7V21.2014L17.7461 21.2134V25.6053" stroke="black" stroke-width="1.52778" stroke-miterlimit="10"/>
</svg>
