<svg width="18" height="10" viewBox="0 0 18 10" fill="none" xmlns="http://www.w3.org/2000/svg">
<path d="M13.0496 2.91447L14.4535 0.723315C14.5437 0.585114 14.5037 0.396153 14.3658 0.306174C14.2292 0.214926 14.0423 0.252754 13.9533 0.394823L12.4979 2.66164C11.406 2.20932 10.1865 1.95516 8.8986 1.95516C7.60945 1.95516 6.3925 2.20932 5.29807 2.66164L3.84523 0.394823C3.75631 0.252754 3.56805 0.214926 3.43012 0.306174C3.29219 0.396092 3.25221 0.585114 3.34245 0.723315L4.74759 2.91447C2.21443 4.16976 0.506348 6.53562 0.506348 9.24949C0.506348 9.41633 0.516687 9.58058 0.530851 9.74349H17.2676C17.2818 9.58058 17.2908 9.41633 17.2908 9.24949C17.2908 6.53562 15.5814 4.16976 13.0496 2.91447ZM5.01832 6.83801C4.57356 6.83801 4.2126 6.47561 4.2126 6.02463C4.2126 5.57365 4.57356 5.21253 5.01832 5.21253C5.46564 5.21253 5.82404 5.57359 5.82404 6.02463C5.82404 6.47567 5.46307 6.83801 5.01832 6.83801ZM12.7776 6.83801C12.3329 6.83801 11.9719 6.47561 11.9719 6.02463C11.9719 5.57365 12.3329 5.21253 12.7776 5.21253C13.2236 5.21253 13.582 5.57359 13.582 6.02463C13.582 6.47561 13.2236 6.83801 12.7776 6.83801Z" fill="#FAB863"/>
</svg>
