<svg width="18" height="18" viewBox="0 0 18 18" fill="none" xmlns="http://www.w3.org/2000/svg">
<path d="M13.9052 6.75002L6.66016 2.59502C6.26812 2.36864 5.82316 2.25005 5.37046 2.25129C4.91775 2.25253 4.47344 2.37357 4.08266 2.6021C3.69187 2.83063 3.36853 3.15852 3.14547 3.55245C2.92241 3.94639 2.80759 4.39234 2.81266 4.84502V13.185C2.81266 13.8653 3.0829 14.5177 3.56393 14.9987C4.04496 15.4798 4.69738 15.75 5.37766 15.75C5.82799 15.7493 6.27023 15.6303 6.66016 15.405L13.9052 11.25C14.2945 11.0247 14.6177 10.701 14.8423 10.3113C15.067 9.9217 15.1853 9.47981 15.1853 9.03002C15.1853 8.58023 15.067 8.13834 14.8423 7.74869C14.6177 7.35904 14.2945 7.03533 13.9052 6.81002V6.75002ZM13.1552 9.89252L5.91016 14.1075C5.74778 14.1995 5.56431 14.2479 5.37766 14.2479C5.19101 14.2479 5.00755 14.1995 4.84516 14.1075C4.68323 14.014 4.54877 13.8796 4.4553 13.7176C4.36182 13.5557 4.31263 13.372 4.31266 13.185V4.81502C4.31263 4.62804 4.36182 4.44435 4.4553 4.28242C4.54877 4.12048 4.68323 3.98601 4.84516 3.89252C5.00822 3.80189 5.19113 3.75294 5.37766 3.75002C5.56406 3.75385 5.74676 3.80274 5.91016 3.89252L13.1552 8.07752C13.3171 8.17097 13.4517 8.30542 13.5452 8.46736C13.6387 8.6293 13.688 8.81301 13.688 9.00002C13.688 9.18703 13.6387 9.37074 13.5452 9.53268C13.4517 9.69462 13.3171 9.82907 13.1552 9.92252V9.89252Z" fill="white"/>
</svg>
