<svg width="22" height="22" viewBox="0 0 22 22" fill="none" xmlns="http://www.w3.org/2000/svg">
<path d="M13.5673 4.2287L19.7099 14.4596C20.5926 15.929 20.1591 17.8623 18.741 18.7771C18.265 19.0853 17.7102 19.2495 17.1432 19.2501H4.85715C3.1879 19.2501 1.83398 17.8476 1.83398 16.116C1.83398 15.5303 1.99257 14.9574 2.29048 14.4596L8.43398 4.2287C9.31582 2.75928 11.1803 2.3092 12.5984 3.22403C12.9907 3.47703 13.3226 3.82078 13.5673 4.2287ZM11.0007 15.5834C11.2438 15.5834 11.4769 15.4869 11.6488 15.315C11.8207 15.1431 11.9173 14.9099 11.9173 14.6668C11.9173 14.4237 11.8207 14.1905 11.6488 14.0186C11.4769 13.8467 11.2438 13.7501 11.0007 13.7501C10.7575 13.7501 10.5244 13.8467 10.3525 14.0186C10.1806 14.1905 10.084 14.4237 10.084 14.6668C10.084 14.9099 10.1806 15.1431 10.3525 15.315C10.5244 15.4869 10.7575 15.5834 11.0007 15.5834ZM11.0007 7.33345C10.7575 7.33345 10.5244 7.43002 10.3525 7.60193C10.1806 7.77384 10.084 8.007 10.084 8.25011V11.9168C10.084 12.1599 10.1806 12.3931 10.3525 12.565C10.5244 12.7369 10.7575 12.8334 11.0007 12.8334C11.2438 12.8334 11.4769 12.7369 11.6488 12.565C11.8207 12.3931 11.9173 12.1599 11.9173 11.9168V8.25011C11.9173 8.007 11.8207 7.77384 11.6488 7.60193C11.4769 7.43002 11.2438 7.33345 11.0007 7.33345Z" fill="#D10ED1"/>
</svg>
