<svg width="14" height="14" viewBox="0 0 14 14" fill="none" xmlns="http://www.w3.org/2000/svg">
<path d="M13.2449 0.629456V6.41172C13.2449 6.60952 13.2449 6.60952 13.0517 6.60982C12.3071 6.61163 11.5625 6.60982 10.8179 6.61584C9.56108 6.62387 8.30418 6.63391 7.04717 6.64595C6.91468 6.64595 6.78218 6.66913 6.64998 6.66402C6.61352 6.66251 6.5735 6.60199 6.54623 6.56105C6.5323 6.54028 6.54297 6.50234 6.54297 6.47224C6.54297 4.92115 6.54534 3.37126 6.53912 1.81927C6.53912 1.6597 6.5984 1.61785 6.73771 1.59648C7.60681 1.46401 8.47412 1.3192 9.34322 1.18643C10.0567 1.07714 10.7719 0.979294 11.4863 0.874824C12.0012 0.799557 12.5158 0.720679 13.0303 0.64481C13.0932 0.63638 13.1578 0.636079 13.2449 0.629456Z" fill="#FAB863"/>
<path d="M13.2449 13.3707C12.9782 13.3288 12.7327 13.2893 12.4864 13.252C11.9084 13.1646 11.3304 13.0763 10.7526 12.992C10.1355 12.9009 9.51803 12.816 8.90058 12.7292C8.36544 12.6539 7.8303 12.5795 7.29516 12.5059C7.0764 12.4755 6.85675 12.4485 6.63918 12.4094C6.60272 12.4027 6.56804 12.3457 6.54669 12.3041C6.53217 12.2762 6.54284 12.2346 6.54284 12.1994V7.54169C6.54284 7.33536 6.54284 7.33536 6.74559 7.33536C8.84545 7.33536 10.9454 7.33536 13.0455 7.33536C13.2447 7.33536 13.2449 7.33536 13.2449 7.54351V13.3694V13.3707Z" fill="#FAB863"/>
<path d="M5.86877 1.97063V6.44949C5.86877 6.6328 5.86877 6.6328 5.67393 6.63309C4.79435 6.63479 3.91478 6.63309 3.03491 6.63906C2.35625 6.64304 1.67769 6.65156 0.999226 6.66464C0.881675 6.66691 0.839063 6.63479 0.839357 6.514C0.843471 5.26348 0.843471 4.01296 0.839357 2.76243C0.839357 2.655 0.873447 2.61237 0.981006 2.59731C1.46267 2.53024 1.94316 2.4552 2.42453 2.38728C2.8915 2.32134 3.35906 2.25739 3.82691 2.19913C4.27096 2.14229 4.71589 2.09568 5.16053 2.04566C5.38622 2.02065 5.61457 1.99763 5.86877 1.97063Z" fill="#FAB863"/>
<path d="M5.86552 9.8699C5.86552 10.6463 5.86552 11.4224 5.86552 12.1984C5.86552 12.3843 5.86552 12.3776 5.68195 12.3505C5.1274 12.273 4.57197 12.203 4.01743 12.126C3.47287 12.0505 2.92889 11.969 2.38433 11.8923C1.92143 11.8272 1.45882 11.7608 0.994736 11.7039C0.877247 11.6896 0.839063 11.6431 0.839357 11.5213C0.842882 10.1824 0.842882 8.8435 0.839357 7.50458C0.839357 7.36765 0.879891 7.33417 1.00648 7.33539C2.45199 7.34939 3.89749 7.35953 5.34299 7.36582C5.46518 7.36582 5.58766 7.36947 5.70926 7.36034C5.83087 7.35121 5.86964 7.39594 5.86876 7.52375C5.86288 8.30763 5.86552 9.08876 5.86552 9.8699Z" fill="#FAB863"/>
</svg>
